<svg width="40" height="40" viewBox="0 0 40 40" fill="none" xmlns="http://www.w3.org/2000/svg">
<path d="M7.91732 35.4168H32.084C32.968 35.4168 33.8159 35.0656 34.441 34.4405C35.0661 33.8154 35.4173 32.9676 35.4173 32.0835V7.91683C35.4173 7.03277 35.0661 6.18493 34.441 5.55981C33.8159 4.93469 32.968 4.5835 32.084 4.5835H7.91732C7.03326 4.5835 6.18542 4.93469 5.56029 5.55981C4.93517 6.18493 4.58398 7.03277 4.58398 7.91683V32.0835C4.58398 32.9676 4.93517 33.8154 5.56029 34.4405C6.18542 35.0656 7.03326 35.4168 7.91732 35.4168Z" stroke="#3692E6" stroke-width="0.5" stroke-linecap="round" stroke-linejoin="round"/>
<path d="M6.35156 17.7915H9.6849L6.35156 22.2082H9.6849M26.0257 15.5415V22.2082M26.0257 20.7923L29.0441 17.789M26.9866 19.8365L29.3591 22.1982M14.2707 20.5415C14.2707 20.9835 14.0951 21.4075 13.7826 21.72C13.47 22.0326 13.0461 22.2082 12.6041 22.2082C12.162 22.2082 11.7381 22.0326 11.4256 21.72C11.113 21.4075 10.9374 20.9835 10.9374 20.5415V19.4582C10.9374 19.0161 11.113 18.5922 11.4256 18.2797C11.7381 17.9671 12.162 17.7915 12.6041 17.7915C13.0461 17.7915 13.47 17.9671 13.7826 18.2797C14.0951 18.5922 14.2707 19.0161 14.2707 19.4582M14.2707 22.2082V17.7915M33.6507 20.5415C33.6507 20.9835 33.4751 21.4075 33.1626 21.72C32.85 22.0326 32.4261 22.2082 31.9841 22.2082C31.542 22.2082 31.1181 22.0326 30.8056 21.72C30.493 21.4075 30.3174 20.9835 30.3174 20.5415V19.4582C30.3174 19.0161 30.493 18.5922 30.8056 18.2797C31.1181 17.9671 31.542 17.7915 31.9841 17.7915C32.4261 17.7915 32.85 17.9671 33.1626 18.2797C33.4751 18.5922 33.6507 19.0161 33.6507 19.4582M33.6499 22.2082V17.7915M16.0024 20.5415C16.0024 20.9835 16.178 21.4075 16.4906 21.72C16.8031 22.0326 17.227 22.2082 17.6691 22.2082C18.1111 22.2082 18.535 22.0326 18.8476 21.72C19.1601 21.4075 19.3357 20.9835 19.3357 20.5415V19.4582C19.3357 19.0161 19.1601 18.5922 18.8476 18.2797C18.535 17.9671 18.1111 17.7915 17.6691 17.7915C17.227 17.7915 16.8031 17.9671 16.4906 18.2797C16.178 18.5922 16.0024 19.0161 16.0024 19.4582M16.0024 17.7915V24.4582M21.0141 20.5415C21.0141 20.9835 21.1897 21.4075 21.5022 21.72C21.8148 22.0326 22.2387 22.2082 22.6807 22.2082C23.1228 22.2082 23.5467 22.0326 23.8592 21.72C24.1718 21.4075 24.3474 20.9835 24.3474 20.5415V19.4582C24.3474 19.0161 24.1718 18.5922 23.8592 18.2797C23.5467 17.9671 23.1228 17.7915 22.6807 17.7915C22.2387 17.7915 21.8148 17.9671 21.5022 18.2797C21.1897 18.5922 21.0141 19.0161 21.0141 19.4582M21.0141 17.7915V24.4582M10.9432 25.7023C12.9328 27.0095 15.2614 27.7059 17.642 27.7059C20.0226 27.7059 22.3511 27.0095 24.3407 25.7023" stroke="#3692E6" stroke-width="0.5" stroke-linecap="round" stroke-linejoin="round"/>
<path d="M8.01758 16.9585C8.36276 16.9585 8.64258 16.6787 8.64258 16.3335C8.64258 15.9883 8.36276 15.7085 8.01758 15.7085C7.6724 15.7085 7.39258 15.9883 7.39258 16.3335C7.39258 16.6787 7.6724 16.9585 8.01758 16.9585Z" fill="#3692E6"/>
</svg>
