<svg width="27" height="20" viewBox="0 0 27 20" fill="none" xmlns="http://www.w3.org/2000/svg">
<path fill-rule="evenodd" clip-rule="evenodd" d="M7.26762 4.16699C7.33429 4.90866 7.50095 5.63366 7.76762 6.32533L6.43429 7.32533C5.97873 6.32533 5.68984 5.26699 5.58984 4.16699H7.26762ZM18.222 14.1836C19.1664 14.3836 20.1331 14.5086 21.1109 14.5586V15.8003C19.6442 15.7253 18.2331 15.5086 16.8887 15.1753L18.222 14.1836ZM8.33398 2.5H4.4451C3.83398 2.5 3.33398 2.875 3.33398 3.33333C3.33398 11.1583 11.7895 17.5 22.2229 17.5C22.834 17.5 23.334 17.125 23.334 16.6667V13.7583C23.334 13.3 22.834 12.925 22.2229 12.925C20.8451 12.925 19.5007 12.7583 18.2562 12.45C18.1451 12.4167 18.0229 12.4083 17.9118 12.4083C17.6229 12.4083 17.3451 12.4917 17.1229 12.65L14.6784 14.4833C11.534 13.275 8.95621 11.35 7.35621 8.99167L9.80065 7.15833C10.1118 6.925 10.2007 6.6 10.0784 6.30833C9.66732 5.375 9.4451 4.375 9.4451 3.33333C9.4451 2.875 8.9451 2.5 8.33398 2.5Z" fill="#2E2E2E"/>
</svg>
