<svg width="16" height="16" viewBox="0 0 16 16" fill="none" xmlns="http://www.w3.org/2000/svg">
<path d="M12.9978 5.326L7.99983 10.198L3.00183 5.326C2.91254 5.23877 2.79266 5.18993 2.66783 5.18993C2.543 5.18993 2.42313 5.23877 2.33383 5.326C2.29059 5.36836 2.25624 5.41893 2.23279 5.47474C2.20934 5.53054 2.19727 5.59047 2.19727 5.651C2.19727 5.71153 2.20934 5.77146 2.23279 5.82726C2.25624 5.88307 2.29059 5.93364 2.33383 5.976L7.65083 11.16C7.74421 11.251 7.86944 11.302 7.99983 11.302C8.13022 11.302 8.25546 11.251 8.34883 11.16L13.6658 5.977C13.7094 5.9346 13.744 5.88391 13.7676 5.82792C13.7912 5.77193 13.8034 5.71177 13.8034 5.651C13.8034 5.59023 13.7912 5.53007 13.7676 5.47408C13.744 5.41809 13.7094 5.3674 13.6658 5.325C13.5765 5.23777 13.4567 5.18893 13.3318 5.18893C13.207 5.18893 13.0871 5.23777 12.9978 5.325V5.326Z" fill="#2E2E2E"/>
</svg>
