<svg width="24" height="24" viewBox="0 0 24 24" fill="none" xmlns="http://www.w3.org/2000/svg">
<path d="M11 9C11 8.73478 11.1054 8.48043 11.2929 8.29289C11.4804 8.10536 11.7348 8 12 8C12.2652 8 12.5196 8.10536 12.7071 8.29289C12.8946 8.48043 13 8.73478 13 9C13 9.26522 12.8946 9.51957 12.7071 9.70711C12.5196 9.89464 12.2652 10 12 10C11.7348 10 11.4804 9.89464 11.2929 9.70711C11.1054 9.51957 11 9.26522 11 9Z" fill="#3CA2FF"/>
<path fill-rule="evenodd" clip-rule="evenodd" d="M9.89625 3.05077C10.1471 2.73283 10.4667 2.47587 10.8312 2.29921C11.1956 2.12254 11.5953 2.03076 12.0003 2.03076C12.4052 2.03076 12.8049 2.12254 13.1694 2.29921C13.5338 2.47587 13.8534 2.73283 14.1043 3.05077C14.2513 3.23677 14.4843 3.33277 14.7193 3.30577C15.1214 3.25826 15.5292 3.30251 15.9118 3.43521C16.2944 3.5679 16.642 3.78558 16.9284 4.0719C17.2148 4.35821 17.4326 4.70571 17.5654 5.08829C17.6982 5.47087 17.7426 5.87857 17.6953 6.28077C17.6814 6.39645 17.6974 6.51376 17.7419 6.62146C17.7864 6.72915 17.8578 6.8236 17.9493 6.89577C18.2672 7.14661 18.5241 7.46625 18.7008 7.83066C18.8775 8.19508 18.9693 8.59479 18.9693 8.99977C18.9693 9.40475 18.8775 9.80446 18.7008 10.1689C18.5241 10.5333 18.2672 10.8529 17.9493 11.1038C17.8578 11.1759 17.7864 11.2704 17.7419 11.3781C17.6974 11.4858 17.6814 11.6031 17.6953 11.7188C17.7428 12.121 17.6985 12.5289 17.5658 12.9116C17.433 13.2943 17.2153 13.6419 16.9288 13.9283C16.6424 14.2148 16.2948 14.4325 15.9121 14.5653C15.5293 14.698 15.1215 14.7423 14.7193 14.6948C14.6036 14.6809 14.4863 14.6969 14.3786 14.7414C14.2709 14.7859 14.1764 14.8573 14.1043 14.9488C13.8532 15.2664 13.5335 15.523 13.1691 15.6995C12.8047 15.8759 12.4051 15.9675 12.0003 15.9675C11.5954 15.9675 11.1958 15.8759 10.8314 15.6995C10.467 15.523 10.1473 15.2664 9.89625 14.9488C9.8243 14.8573 9.73005 14.7858 9.62254 14.7411C9.51504 14.6965 9.39787 14.6802 9.28225 14.6938C8.88007 14.7413 8.47235 14.697 8.08973 14.5643C7.70711 14.4316 7.35954 14.214 7.07313 13.9276C6.78672 13.6413 6.56892 13.2938 6.43609 12.9112C6.30327 12.5287 6.25888 12.121 6.30625 11.7188C6.32004 11.603 6.30382 11.4856 6.25917 11.3779C6.21451 11.2702 6.14292 11.1758 6.05125 11.1038C5.73332 10.8529 5.47636 10.5333 5.2997 10.1689C5.12303 9.80446 5.03125 9.40475 5.03125 8.99977C5.03125 8.59479 5.12303 8.19508 5.2997 7.83066C5.47636 7.46625 5.73332 7.14661 6.05125 6.89577C6.14292 6.82372 6.21451 6.72931 6.25917 6.62161C6.30382 6.51391 6.32004 6.39654 6.30625 6.28077C6.25888 5.87857 6.30327 5.47087 6.43609 5.08829C6.56892 4.70571 6.78672 4.35821 7.07313 4.0719C7.35954 3.78558 7.70711 3.5679 8.08973 3.43521C8.47235 3.30251 8.88007 3.25826 9.28225 3.30577C9.39787 3.31937 9.51504 3.30307 9.62254 3.25842C9.73005 3.21377 9.8243 3.14227 9.89625 3.05077ZM12.0003 5.99977C11.2046 5.99977 10.4415 6.31584 9.87893 6.87845C9.31632 7.44106 9.00025 8.20412 9.00025 8.99977C9.00025 9.79542 9.31632 10.5585 9.87893 11.1211C10.4415 11.6837 11.2046 11.9998 12.0003 11.9998C12.7959 11.9998 13.559 11.6837 14.1216 11.1211C14.6842 10.5585 15.0003 9.79542 15.0003 8.99977C15.0003 8.20412 14.6842 7.44106 14.1216 6.87845C13.559 6.31584 12.7959 5.99977 12.0003 5.99977Z" fill="#3CA2FF"/>
<path d="M5.39457 15.0547L4.06957 18.9997C4.01042 19.1759 4.00155 19.3651 4.04395 19.5461C4.08636 19.727 4.17836 19.8926 4.30963 20.0242C4.44091 20.1558 4.60626 20.2482 4.78713 20.291C4.96799 20.3338 5.15722 20.3254 5.33357 20.2667L7.28357 19.6167L8.42757 21.3237C8.53098 21.4773 8.67502 21.5992 8.84364 21.6758C9.01225 21.7524 9.19882 21.7806 9.38255 21.7574C9.56628 21.7342 9.73995 21.6604 9.88421 21.5442C10.0285 21.4281 10.1376 21.2742 10.1996 21.0997L11.3196 17.9197C10.3772 17.7846 9.49912 17.3628 8.80457 16.7117C8.15182 16.6895 7.51098 16.5307 6.92343 16.2455C6.33589 15.9602 5.81471 15.5549 5.39357 15.0557L5.39457 15.0547ZM12.6636 17.9217L13.7836 21.0987C13.8454 21.2735 13.9546 21.4276 14.0989 21.5439C14.2432 21.6602 14.4171 21.7341 14.601 21.7574C14.7849 21.7806 14.9717 21.7523 15.1404 21.6755C15.3092 21.5987 15.4532 21.4766 15.5566 21.3227L16.7006 19.6157L18.6506 20.2657C18.8268 20.3243 19.0159 20.3327 19.1966 20.2899C19.3774 20.2471 19.5426 20.1548 19.6738 20.0233C19.8051 19.8919 19.8971 19.7265 19.9396 19.5457C19.9821 19.3649 19.9735 19.1758 19.9146 18.9997L18.5946 15.0697C18.1734 15.565 17.6534 15.9669 17.0679 16.2496C16.4824 16.5324 15.8444 16.6898 15.1946 16.7117C14.4962 17.3663 13.6125 17.789 12.6646 17.9217H12.6636Z" fill="#3CA2FF"/>
</svg>
