<svg width="34" height="34" viewBox="0 0 34 34" fill="none" xmlns="http://www.w3.org/2000/svg">
<g clip-path="url(#clip0_2122_5034)">
<path d="M0 25.5908C0 26.9971 1.14 28.1372 2.54635 28.1372H31.4537C32.8599 28.1372 34 26.9972 34 25.5908V23.4475H0V25.5908ZM31.4537 5.86133H2.54635C1.14 5.86133 0 7.00132 0 8.40768V10.551H34V8.40768C34 7.00132 32.86 5.86133 31.4537 5.86133Z" fill="#C8414B"/>
<path d="M0 10.5508H34V23.4475H0V10.5508Z" fill="#FFD250"/>
<path d="M14.3605 16.9993L14.8575 14.7627C14.9034 14.5567 14.7466 14.3613 14.5355 14.3613H14.1854C13.9745 14.3613 13.8177 14.5568 13.8634 14.7627L14.3605 16.9993Z" fill="#C8414B"/>
<path d="M13.7773 15.8262H14.9497V20.8086H13.7773V15.8262Z" fill="#F5F5F5"/>
<path d="M13.4844 15.2402H15.243V15.8265H13.4844V15.2402Z" fill="#FAB446"/>
<path d="M12.3089 16.9993H15.2401V17.5856H12.3089V16.9993ZM15.2399 19.3441L13.4813 18.758V18.1717L15.2399 18.758V19.3441ZM5.56751 16.9993L6.06456 14.7627C6.11038 14.5567 5.9536 14.3613 5.74256 14.3613H5.39247C5.18149 14.3613 5.02477 14.5568 5.07046 14.7627L5.56751 16.9993Z" fill="#C8414B"/>
<path d="M7.62139 15.2402C7.46592 15.2403 7.31682 15.302 7.20688 15.412C7.09694 15.5219 7.03517 15.671 7.03516 15.8265V19.6368C7.03516 20.349 7.69988 21.6885 9.9662 21.6885C12.2325 21.6885 12.8972 20.3491 12.8972 19.6368V15.8265C12.8972 15.671 12.8354 15.5219 12.7255 15.412C12.6156 15.302 12.4665 15.2403 12.311 15.2402H7.62139Z" fill="#F5F5F5"/>
<path d="M9.9662 18.1713H7.03516V15.8265C7.03517 15.671 7.09694 15.5219 7.20688 15.412C7.31682 15.302 7.46592 15.2403 7.62139 15.2402H9.9662V18.1713ZM9.9662 18.1713H12.8972V19.6368C12.8972 20.4462 12.2411 21.1023 11.4317 21.1023C10.6223 21.1023 9.9662 20.4462 9.9662 19.6368V18.1713Z" fill="#C8414B"/>
<path d="M7.03516 18.1719H9.9662V19.6374C9.9662 20.4468 9.3101 21.1029 8.50068 21.1029C7.69125 21.1029 7.03516 20.4468 7.03516 19.6374V18.1719Z" fill="#FAB446"/>
<path d="M9.37973 20.8032V18.1719H8.7935V21.0734C9.01157 21.0291 9.2086 20.9326 9.37973 20.8032ZM8.20733 21.0734V18.1719H7.62109V20.8032C7.79229 20.9326 7.98932 21.0291 8.20733 21.0734Z" fill="#C8414B"/>
<path d="M7.62109 17H9.37973V17.5862H7.62109V17Z" fill="#FFB441"/>
<path d="M7.62109 15.8262H9.37973V16.4124H7.62109V15.8262Z" fill="#FAB446"/>
<path d="M7.91406 16.1758H9.08646V17.2378H7.91406V16.1758Z" fill="#FAB446"/>
<path d="M4.98438 15.8262H6.15678V20.8086H4.98438V15.8262Z" fill="#F5F5F5"/>
<path d="M4.69141 20.5162H6.45004V21.1024H4.69141V20.5162ZM4.69141 15.2402H6.45004V15.8265H4.69141V15.2402Z" fill="#FAB446"/>
<path d="M4.39844 21.1016H6.74324V21.6878H4.39844V21.1016Z" fill="#5064AA"/>
<path d="M13.7773 20.5176H15.536V21.1038H13.7773V20.5176Z" fill="#FAB446"/>
<path d="M13.1914 21.1016H15.5362V21.6878H13.1914V21.1016Z" fill="#5064AA"/>
<path d="M8.20703 14.6544H11.7243V15.2407H8.20703V14.6544Z" fill="#FAB446"/>
<path d="M9.67188 12.8965H10.2581V14.6551H9.67188V12.8965Z" fill="#FFB441"/>
<path d="M9.37928 13.7742C8.89439 13.7742 8.5 13.3797 8.5 12.8949C8.5 12.41 8.89445 12.0156 9.37928 12.0156C9.86418 12.0156 10.2586 12.4101 10.2586 12.8949C10.2586 13.3797 9.86418 13.7742 9.37928 13.7742ZM9.37928 12.6018C9.30156 12.6018 9.22704 12.6327 9.17208 12.6877C9.11712 12.7427 9.08622 12.8172 9.08617 12.8949C9.08617 13.0566 9.21752 13.188 9.37928 13.188C9.54105 13.188 9.6724 13.0567 9.6724 12.8949C9.67235 12.8172 9.64145 12.7427 9.58649 12.6877C9.53153 12.6327 9.45701 12.6018 9.37928 12.6018Z" fill="#F5F5F5"/>
<path d="M10.5512 13.7742C10.0663 13.7742 9.67188 13.3797 9.67188 12.8949C9.67188 12.41 10.0663 12.0156 10.5512 12.0156C11.0361 12.0156 11.4304 12.4101 11.4304 12.8949C11.4304 13.3797 11.036 13.7742 10.5512 13.7742ZM10.5512 12.6018C10.4734 12.6018 10.3989 12.6327 10.344 12.6877C10.289 12.7427 10.2581 12.8172 10.258 12.8949C10.2581 12.9726 10.289 13.0472 10.344 13.1021C10.3989 13.1571 10.4734 13.188 10.5512 13.188C10.6289 13.188 10.7034 13.1571 10.7584 13.1021C10.8133 13.0472 10.8442 12.9726 10.8443 12.8949C10.8442 12.8172 10.8133 12.7427 10.7583 12.6877C10.7034 12.6328 10.6289 12.6019 10.5512 12.6018Z" fill="#F5F5F5"/>
<path d="M11.7247 14.3621C11.2398 14.3621 10.8454 13.9676 10.8454 13.4828C10.8454 12.9979 11.2399 12.6035 11.7247 12.6035C12.2096 12.6035 12.604 12.998 12.604 13.4828C12.604 13.9676 12.2095 14.3621 11.7247 14.3621ZM11.7247 13.1897C11.647 13.1897 11.5724 13.2206 11.5175 13.2756C11.4625 13.3306 11.4316 13.4051 11.4316 13.4828C11.4316 13.5605 11.4625 13.635 11.5175 13.69C11.5724 13.745 11.647 13.7759 11.7247 13.7759C11.8864 13.7759 12.0178 13.6446 12.0178 13.4828C12.0178 13.321 11.8864 13.1897 11.7247 13.1897ZM8.20741 14.3621C7.72251 14.3621 7.32812 13.9676 7.32812 13.4828C7.32812 12.9979 7.72258 12.6035 8.20741 12.6035C8.69231 12.6035 9.08669 12.998 9.08669 13.4828C9.08676 13.9676 8.69231 14.3621 8.20741 14.3621ZM8.20741 13.1897C8.12969 13.1897 8.05516 13.2206 8.0002 13.2756C7.94524 13.3306 7.91435 13.4051 7.91429 13.4828C7.91429 13.6445 8.04564 13.7759 8.20741 13.7759C8.36918 13.7759 8.50053 13.6445 8.50053 13.4827C8.50047 13.405 8.46957 13.3305 8.41461 13.2756C8.35965 13.2206 8.28513 13.1897 8.20741 13.1897Z" fill="#F5F5F5"/>
<path d="M11.7233 19.344V19.6371C11.7233 19.7987 11.5918 19.9302 11.4301 19.9302C11.2685 19.9302 11.137 19.7987 11.137 19.6371V19.344H11.7233ZM12.3094 18.7578H10.5508V19.6371C10.5508 20.122 10.9452 20.5164 11.4301 20.5164C11.915 20.5164 12.3094 20.1219 12.3094 19.6371L12.3094 18.7578Z" fill="#FAB446"/>
<path d="M11.43 17.5859C11.2745 17.5859 11.1254 17.5241 11.0155 17.4142C10.9055 17.3042 10.8438 17.1551 10.8438 16.9996V16.4134C10.8461 16.2595 10.9089 16.1126 11.0185 16.0046C11.1282 15.8965 11.276 15.8359 11.43 15.8359C11.584 15.8359 11.7317 15.8965 11.8414 16.0046C11.9511 16.1126 12.0139 16.2595 12.0162 16.4134V16.9996C12.0162 17.1551 11.9544 17.3042 11.8445 17.4142C11.7346 17.5241 11.5855 17.5859 11.43 17.5859Z" fill="#FFA0D2"/>
<path d="M9.96522 19.0515C10.4508 19.0515 10.8445 18.6579 10.8445 18.1723C10.8445 17.6866 10.4508 17.293 9.96522 17.293C9.47961 17.293 9.08594 17.6866 9.08594 18.1723C9.08594 18.6579 9.47961 19.0515 9.96522 19.0515Z" fill="#5064AA"/>
<path d="M9.67188 11.7227H10.2581V13.4813H9.67188V11.7227Z" fill="#FAB446"/>
<path d="M8.20733 14.6551L7.62109 14.0688L7.96448 13.7255C8.49533 13.1947 9.21528 12.8965 9.96596 12.8965C10.7167 12.8965 11.4366 13.1947 11.9674 13.7255L12.3108 14.0688L11.7246 14.6551H8.20733Z" fill="#C8414B"/>
<path d="M9.96499 14.3616C10.1269 14.3616 10.2581 14.2304 10.2581 14.0685C10.2581 13.9066 10.1269 13.7754 9.96499 13.7754C9.80311 13.7754 9.67188 13.9066 9.67188 14.0685C9.67188 14.2304 9.80311 14.3616 9.96499 14.3616Z" fill="#FFD250"/>
<path d="M8.79312 14.3616C8.955 14.3616 9.08623 14.2304 9.08623 14.0685C9.08623 13.9066 8.955 13.7754 8.79312 13.7754C8.63123 13.7754 8.5 13.9066 8.5 14.0685C8.5 14.2304 8.63123 14.3616 8.79312 14.3616Z" fill="#FFD250"/>
<path d="M11.1369 14.3616C11.2988 14.3616 11.43 14.2304 11.43 14.0685C11.43 13.9066 11.2988 13.7754 11.1369 13.7754C10.975 13.7754 10.8438 13.9066 10.8438 14.0685C10.8438 14.2304 10.975 14.3616 11.1369 14.3616Z" fill="#FFD250"/>
<path d="M4.69141 17H7.62258V17.5862H4.69141V17ZM4.69147 19.3448L6.45004 18.7586V18.1724L4.69147 18.7586V19.3448Z" fill="#C8414B"/>
</g>
<defs>
<clipPath id="clip0_2122_5034">
<rect width="34" height="34" fill="white"/>
</clipPath>
</defs>
</svg>
