<svg width="30" height="30" viewBox="0 0 30 30" fill="none" xmlns="http://www.w3.org/2000/svg">
<mask id="mask0_2122_5647" style="mask-type:luminance" maskUnits="userSpaceOnUse" x="0" y="0" width="30" height="30">
<path d="M0 8.7738e-05H29.9999V30H0V8.7738e-05Z" fill="white"/>
</mask>
<g mask="url(#mask0_2122_5647)">
<path d="M15 7.38281C13.3846 7.38281 12.0703 6.06856 12.0703 4.45313C12.0703 2.83771 13.3846 1.52346 15 1.52346C16.6154 1.52346 17.9297 2.83771 17.9297 4.45313C17.9297 6.06856 16.6154 7.38281 15 7.38281Z" stroke="#3692E6" stroke-miterlimit="10" stroke-linecap="round" stroke-linejoin="round"/>
<path d="M15 8.55471C12.4113 8.55471 10.3125 10.6535 10.3125 13.2422V15.5859H19.6875V13.2422C19.6875 10.6535 17.5887 8.55471 15 8.55471Z" stroke="#3692E6" stroke-miterlimit="10" stroke-linecap="round" stroke-linejoin="round"/>
<path d="M23.5547 20.416L26.5553 17.4149C26.8734 17.0967 27.0703 16.6572 27.0703 16.1721C27.0703 15.4069 26.5816 14.7559 25.8984 14.5145" stroke="#3692E6" stroke-miterlimit="10" stroke-linecap="round" stroke-linejoin="round"/>
<path d="M4.10155 14.5143C4.28495 14.4493 4.48182 14.4141 4.68749 14.4141C5.17264 14.4141 5.61209 14.611 5.93026 14.9291L7.53455 16.5334C8.41052 17.4088 9.94626 17.8278 11.1797 17.9426C11.1943 17.9444 11.2084 17.9455 11.223 17.9473C12.7377 18.1102 13.8281 19.4989 13.8281 21.0223V28.4766H7.61717V24.9609L4.47245 23.3889C2.09062 22.1977 0.585938 19.7631 0.585938 17.1V9.14068C0.585938 8.16979 1.37285 7.38288 2.34374 7.38288C3.31464 7.38288 4.10155 8.16979 4.10155 9.14068V14.5143Z" stroke="#3692E6" stroke-miterlimit="10" stroke-linecap="round" stroke-linejoin="round"/>
<path d="M6.4453 20.416L3.44473 17.4149C3.12656 17.0967 2.92969 16.6572 2.92969 16.1721C2.92969 15.4069 3.41836 14.7559 4.10156 14.5145" stroke="#3692E6" stroke-miterlimit="10" stroke-linecap="round" stroke-linejoin="round"/>
<path d="M26.8945 22.5859C26.942 22.5859 26.9805 22.5474 26.9805 22.5C26.9805 22.4526 26.942 22.4141 26.8945 22.4141C26.8471 22.4141 26.8086 22.4526 26.8086 22.5C26.8086 22.5474 26.8471 22.5859 26.8945 22.5859Z" fill="#3692E6" stroke="#3692E6"/>
<path d="M28.5605 20.4577C29.1209 19.4273 29.4144 18.273 29.414 17.1V9.14068C29.414 8.16985 28.6272 7.38288 27.6562 7.38288C26.6853 7.38288 25.8984 8.16985 25.8984 9.14068V14.5143C25.7102 14.4477 25.5121 14.4138 25.3125 14.4141C24.8273 14.4141 24.3879 14.611 24.0697 14.9292L22.4655 16.5334C21.5894 17.4088 20.0537 17.8278 18.8204 17.9427C18.8057 17.9444 18.7916 17.9455 18.7769 17.9473C17.2624 18.1102 16.1719 19.4989 16.1719 21.0223V28.4766H22.3828V24.9609L24.6245 23.8403" stroke="#3692E6" stroke-miterlimit="10" stroke-linecap="round" stroke-linejoin="round"/>
</g>
</svg>
