<svg width="30" height="30" viewBox="0 0 30 30" fill="none" xmlns="http://www.w3.org/2000/svg">
<g clip-path="url(#clip0_2122_5634)">
<path d="M25.8588 24.1822C24.0734 26.352 21.7 27.9285 18.9953 28.7413C17.6662 29.1407 16.3024 29.3404 14.9393 29.3404C13.4686 29.3404 11.9987 29.1081 10.5732 28.6442C6.68865 27.38 3.57604 24.5318 1.96828 20.7913L1.64607 21.9899C1.5873 22.2086 1.36219 22.3385 1.14352 22.2795C1.03848 22.2512 0.94896 22.1824 0.894656 22.0881C0.840352 21.9939 0.825708 21.8819 0.853945 21.7769L1.5065 19.3497C1.5225 19.2903 1.55166 19.2352 1.59182 19.1886C1.63197 19.142 1.6821 19.105 1.7385 19.0804C1.79489 19.0558 1.85609 19.0441 1.91759 19.0464C1.97908 19.0486 2.03928 19.0646 2.09373 19.0933L4.306 20.2587C4.40223 20.3094 4.47439 20.3962 4.5066 20.5001C4.5388 20.604 4.52842 20.7165 4.47773 20.8127C4.42699 20.9089 4.34013 20.9811 4.23624 21.0133C4.13235 21.0455 4.01993 21.0351 3.92367 20.9845L2.65893 20.3182C4.15424 23.9148 7.11697 26.6567 10.8271 27.8642C15.9885 29.5439 21.7746 27.8548 25.2253 23.6611C25.2595 23.6193 25.3016 23.5848 25.3491 23.5593C25.3967 23.5338 25.4488 23.518 25.5025 23.5127C25.5562 23.5074 25.6104 23.5128 25.662 23.5285C25.7136 23.5442 25.7616 23.5699 25.8033 23.6042C25.845 23.6384 25.8794 23.6806 25.9048 23.7282C25.9301 23.7759 25.9458 23.828 25.951 23.8817C25.9561 23.9354 25.9506 23.9896 25.9348 24.0412C25.919 24.0928 25.8932 24.1407 25.8588 24.1823V24.1822ZM27.7983 20.011C27.7484 19.9907 27.695 19.9804 27.6412 19.9808C27.5873 19.9811 27.534 19.9921 27.4844 20.013C27.4348 20.034 27.3898 20.0645 27.352 20.1028C27.3141 20.1412 27.2842 20.1866 27.264 20.2365C27.0617 20.7339 26.8296 21.2187 26.5689 21.6881C26.5165 21.7832 26.5039 21.8951 26.5339 21.9994C26.5639 22.1038 26.634 22.1919 26.7289 22.2447C26.8237 22.2974 26.9356 22.3104 27.0401 22.2807C27.1445 22.2511 27.2329 22.1813 27.2859 22.0866C27.5627 21.5882 27.8092 21.0735 28.0239 20.5454C28.0442 20.4955 28.0545 20.4421 28.0541 20.3882C28.0538 20.3344 28.0428 20.2811 28.0218 20.2315C28.0009 20.1818 27.9704 20.1368 27.9321 20.099C27.8937 20.0612 27.8482 20.0313 27.7983 20.011ZM28.5548 16.1382C28.328 16.1236 28.1331 16.2934 28.1176 16.5193C28.0828 17.026 28.019 17.5302 27.9265 18.0295C27.916 18.0827 27.9161 18.1375 27.9269 18.1907C27.9377 18.2439 27.9589 18.2945 27.9894 18.3394C28.0198 18.3843 28.0589 18.4228 28.1044 18.4525C28.1498 18.4822 28.2007 18.5026 28.254 18.5125C28.3074 18.5224 28.3622 18.5216 28.4153 18.5102C28.4684 18.4987 28.5186 18.4769 28.5632 18.4459C28.6077 18.4149 28.6457 18.3753 28.6748 18.3295C28.704 18.2837 28.7238 18.2326 28.733 18.1791C28.8313 17.6488 28.899 17.1134 28.9359 16.5754C28.9434 16.4668 28.9074 16.3598 28.8359 16.2778C28.7644 16.1958 28.6633 16.1456 28.5548 16.1381L28.5548 16.1382ZM29.5099 10.4767C29.3002 10.3913 29.0609 10.4924 28.9755 10.7023L28.5082 11.8519C27.3732 7.94203 24.6349 4.73232 20.9355 2.99941C18.5437 1.87893 15.8971 1.45037 13.282 1.76016C13.175 1.77406 13.0777 1.82963 13.0113 1.91481C12.945 1.99999 12.9149 2.10789 12.9276 2.21512C12.9402 2.32235 12.9947 2.42025 13.0791 2.48757C13.1636 2.55489 13.2711 2.58621 13.3785 2.57473C15.8415 2.28293 18.3343 2.6867 20.5874 3.74227C24.1209 5.39742 26.7236 8.48332 27.7646 12.2365L26.5914 11.4196C26.5473 11.3881 26.4973 11.3656 26.4444 11.3536C26.3915 11.3415 26.3367 11.34 26.2832 11.3493C26.2298 11.3585 26.1787 11.3783 26.1329 11.4075C26.0871 11.4366 26.0476 11.4745 26.0166 11.5191C25.9856 11.5636 25.9637 11.6138 25.9523 11.6668C25.9408 11.7199 25.94 11.7747 25.9499 11.828C25.9597 11.8814 25.9801 11.9322 26.0098 11.9777C26.0394 12.0231 26.0778 12.0622 26.1227 12.0927L28.1747 13.5217C28.2252 13.5569 28.2829 13.5802 28.3437 13.5901C28.4045 13.5999 28.4666 13.5959 28.5256 13.5784C28.5847 13.5609 28.639 13.5304 28.6846 13.489C28.7301 13.4477 28.7658 13.3966 28.789 13.3396L29.7354 11.0112C29.7763 10.9105 29.7756 10.7976 29.7333 10.6973C29.691 10.5971 29.6106 10.5178 29.5099 10.4769L29.5099 10.4767ZM12.2271 9.70266V10.9267C12.2271 11.2307 12.0106 11.494 11.7124 11.5527L11.2675 11.6404L10.9597 12.3833L11.2123 12.7602C11.3816 13.0126 11.3485 13.3517 11.1336 13.5666L10.2681 14.4321C10.0533 14.6469 9.71402 14.68 9.4616 14.5108L9.08484 14.2581L8.34193 14.5659L8.25416 15.011C8.19533 15.3092 7.93213 15.5255 7.62826 15.5255H6.40418C6.1002 15.5255 5.83693 15.3091 5.77822 15.0108L5.69045 14.5659L4.94754 14.2581L4.57072 14.5107C4.31836 14.6801 3.9791 14.6469 3.76424 14.4319L2.89881 13.5664C2.68383 13.3517 2.65072 13.0125 2.82006 12.76L3.07271 12.3832L2.76492 11.6403L2.31984 11.5525C2.02178 11.4939 1.80533 11.2307 1.80533 10.9266V9.70254C1.80533 9.39867 2.02166 9.13547 2.31979 9.07664L2.76492 8.98887L3.07271 8.24596L2.82006 7.86908C2.65072 7.61666 2.68389 7.27746 2.89893 7.0626L3.76441 6.19717C3.97922 5.98219 4.31848 5.9492 4.57084 6.11842L4.9476 6.37107L5.69051 6.06328L5.77834 5.61814C5.83699 5.32008 6.1002 5.10363 6.40424 5.10363H7.62832C7.93219 5.10363 8.19539 5.31996 8.25422 5.61809L8.34199 6.06328L9.0849 6.37107L9.46172 6.11842C9.71408 5.94914 10.0532 5.98236 10.2681 6.19705L11.1336 7.06266C11.3485 7.27746 11.3816 7.6166 11.2124 7.86902L10.9597 8.2459L11.2675 8.98881L11.7125 9.07658C12.0108 9.13541 12.2271 9.39861 12.2271 9.70248L12.2271 9.70266ZM11.4067 9.8526L10.8932 9.75129C10.8269 9.73824 10.7649 9.70901 10.7127 9.6662C10.6604 9.62338 10.6195 9.56832 10.5937 9.5059L10.1178 8.35717C10.0919 8.29475 10.0819 8.22691 10.0886 8.15968C10.0953 8.09245 10.1184 8.02791 10.1561 7.9718L10.4476 7.53697L9.79412 6.88348L9.3593 7.17504C9.3032 7.2127 9.23865 7.2359 9.17142 7.24257C9.10418 7.24925 9.03634 7.23919 8.97393 7.2133L7.8252 6.7374C7.76277 6.71156 7.7077 6.67069 7.66489 6.61842C7.62207 6.56615 7.59284 6.50411 7.5798 6.43781L7.4785 5.9243H6.5543L6.45299 6.43787C6.43993 6.50415 6.4107 6.56618 6.36789 6.61844C6.32508 6.67069 6.27001 6.71156 6.2076 6.7374L5.05887 7.2133C4.99645 7.23915 4.92861 7.24918 4.86138 7.24251C4.79415 7.23583 4.72961 7.21266 4.6735 7.17504L4.23873 6.88348L3.58523 7.53697L3.8768 7.9718C3.91444 8.02791 3.93764 8.09246 3.94431 8.15971C3.95099 8.22695 3.94094 8.2948 3.91506 8.35723L3.4391 9.50596C3.41324 9.56836 3.37237 9.62342 3.32012 9.66622C3.26786 9.70903 3.20584 9.73827 3.13957 9.75135L2.62605 9.85266V10.7769L3.13957 10.8782C3.20585 10.8912 3.26788 10.9204 3.32014 10.9633C3.3724 11.0061 3.41326 11.0611 3.4391 11.1236L3.91506 12.2723C3.94091 12.3348 3.95094 12.4026 3.94427 12.4699C3.93759 12.5371 3.91442 12.6016 3.8768 12.6578L3.58523 13.0925L4.23873 13.746L4.6735 13.4545C4.7296 13.4168 4.79414 13.3936 4.86138 13.3869C4.92861 13.3803 4.99646 13.3903 5.05887 13.4162L6.2076 13.8921C6.27001 13.918 6.32508 13.9588 6.36789 14.0111C6.4107 14.0633 6.43993 14.1254 6.45299 14.1916L6.5543 14.7052H7.4785L7.5798 14.1917C7.59285 14.1254 7.62209 14.0634 7.6649 14.0111C7.70771 13.9589 7.76278 13.918 7.8252 13.8922L8.97393 13.4162C9.03635 13.3904 9.1042 13.3803 9.17144 13.387C9.23868 13.3937 9.30323 13.4168 9.35936 13.4545L9.79418 13.746L10.4477 13.0925L10.1561 12.6578C10.1185 12.6017 10.0953 12.5371 10.0886 12.4699C10.0819 12.4027 10.092 12.3348 10.1179 12.2724L10.5938 11.1236C10.6196 11.0612 10.6605 11.0061 10.7127 10.9633C10.765 10.9205 10.827 10.8913 10.8933 10.8782L11.4068 10.7769V9.85271L11.4067 9.8526ZM9.88834 10.3147C9.88834 11.8983 8.59998 13.1868 7.01631 13.1868C5.43264 13.1868 4.14422 11.8984 4.14422 10.3147C4.14422 8.73106 5.43264 7.4427 7.01631 7.4427C8.59998 7.4427 9.88834 8.73106 9.88834 10.3147ZM9.06803 10.3147C9.06803 9.1834 8.14764 8.26301 7.01631 8.26301C5.88498 8.26301 4.96453 9.1834 4.96453 10.3147C4.96453 11.4461 5.88492 12.3665 7.01631 12.3665C8.1477 12.3665 9.06803 11.4461 9.06803 10.3147ZM6.60615 17.7503H0.644531C0.535751 17.7503 0.431426 17.7071 0.354507 17.6302C0.277588 17.5533 0.234375 17.449 0.234375 17.3402V1.06934C0.234375 0.960556 0.277588 0.856231 0.354507 0.779312C0.431426 0.702392 0.535751 0.65918 0.644531 0.65918H9.0293C9.40682 0.65918 9.75258 0.809941 10.0293 1.09529L13.3621 4.42805C13.6475 4.70484 13.7982 5.05061 13.7982 5.42818V9.90451H18.4182V9.02092C18.4182 8.46252 18.8725 8.00818 19.4309 8.00818H22.0185C22.5769 8.00818 23.0312 8.46252 23.0312 9.02092V11.6084C23.0312 12.1668 22.5769 12.6212 22.0185 12.6212H19.4309C18.8725 12.6212 18.4182 12.1668 18.4182 11.6084V10.7248H13.7982V15.8408H18.4182V14.9572C18.4182 14.3988 18.8725 13.9446 19.4309 13.9446H22.0185C22.5769 13.9446 23.0312 14.3988 23.0312 14.9572V17.5447C23.0312 18.1031 22.5769 18.5574 22.0185 18.5574H19.4309C18.8725 18.5574 18.4182 18.1031 18.4182 17.5447V16.6611H13.7982V17.3401C13.7982 17.4489 13.755 17.5532 13.6781 17.6301C13.6012 17.7071 13.4969 17.7503 13.3881 17.7503H7.42647V21.7772H18.4182V20.8936C18.4182 20.3352 18.8725 19.8809 19.4309 19.8809H22.0185C22.5769 19.8809 23.0312 20.3352 23.0312 20.8936V23.4812C23.0312 24.0396 22.5769 24.4938 22.0185 24.4938H19.4309C18.8725 24.4938 18.4182 24.0396 18.4182 23.4812V22.5975H7.01631C6.90753 22.5975 6.8032 22.5543 6.72628 22.4774C6.64936 22.4004 6.60615 22.2961 6.60615 22.1873V17.7503V17.7503ZM19.2386 23.4812C19.2386 23.5854 19.3267 23.6736 19.4309 23.6736H22.0185C22.1227 23.6736 22.2108 23.5854 22.2108 23.4812V20.8937C22.2108 20.7894 22.1227 20.7013 22.0185 20.7013H19.4309C19.3267 20.7013 19.2386 20.7894 19.2386 20.8937V23.4812ZM19.2386 17.5448C19.2386 17.6491 19.3267 17.7372 19.4309 17.7372H22.0185C22.1227 17.7372 22.2108 17.6491 22.2108 17.5448V14.9573C22.2108 14.8531 22.1227 14.765 22.0185 14.765H19.4309C19.3267 14.765 19.2386 14.8531 19.2386 14.9573V17.5448ZM19.2386 11.6085C19.2386 11.7128 19.3267 11.801 19.4309 11.801H22.0185C22.1227 11.801 22.2108 11.7128 22.2108 11.6085V9.02104C22.2108 8.91674 22.1227 8.82861 22.0185 8.82861H19.4309C19.3267 8.82861 19.2386 8.91674 19.2386 9.02104V11.6085ZM10.4889 3.96861H11.7426L10.4889 2.71488V3.96861ZM1.05469 16.93H12.9779V5.42824C12.9779 5.27297 12.9163 5.13797 12.7896 5.01557C12.7879 5.01392 12.7862 5.01224 12.7845 5.01053L12.7616 4.98762C12.6305 4.86009 12.4549 4.78877 12.272 4.78887H10.0787C9.96987 4.78887 9.86555 4.74565 9.78863 4.66874C9.71171 4.59182 9.6685 4.48749 9.6685 4.37871V2.18537C9.6685 2.0025 9.59807 1.82883 9.47016 1.69617L9.44678 1.67279C9.44507 1.67112 9.44339 1.66942 9.44174 1.6677C9.31934 1.54096 9.18439 1.47938 9.02918 1.47938H1.05469V16.9298V16.93Z" fill="#3692E6"/>
</g>
<defs>
<clipPath id="clip0_2122_5634">
<rect width="30" height="30" fill="white"/>
</clipPath>
</defs>
</svg>
