<svg width="60" height="60" viewBox="0 0 60 60" fill="none" xmlns="http://www.w3.org/2000/svg">
<path d="M58.9636 13.5856L53.1197 1.89166C53.0418 1.7359 52.9221 1.6049 52.774 1.51335C52.6259 1.42179 52.4552 1.37329 52.2811 1.37329C52.107 1.37329 51.9363 1.42179 51.7882 1.51335C51.64 1.6049 51.5203 1.7359 51.4425 1.89166L45.5985 13.5856C45.527 13.7285 45.4933 13.8873 45.5006 14.047C45.5078 14.2066 45.5557 14.3617 45.6397 14.4976C45.7237 14.6336 45.8411 14.7457 45.9807 14.8235C46.1203 14.9013 46.2774 14.9421 46.4372 14.9421H48.1561V23.1578C48.1561 23.4064 48.2549 23.6449 48.4307 23.8207C48.6065 23.9965 48.845 24.0953 49.0936 24.0953H55.4688C55.7175 24.0953 55.9559 23.9965 56.1317 23.8207C56.3076 23.6449 56.4063 23.4064 56.4063 23.1578V14.9421H58.125C58.2848 14.9421 58.4419 14.9013 58.5815 14.8235C58.721 14.7457 58.8384 14.6335 58.9224 14.4976C59.0064 14.3617 59.0543 14.2066 59.0615 14.0469C59.0687 13.8873 59.035 13.7285 58.9636 13.5856ZM55.4687 13.0673C55.2201 13.0673 54.9816 13.166 54.8058 13.3418C54.63 13.5177 54.5312 13.7561 54.5312 14.0048V22.2204H50.0309V14.0048C50.0309 13.7561 49.9321 13.5177 49.7563 13.3418C49.5805 13.166 49.342 13.0673 49.0934 13.0673H47.9535L52.281 4.40803L56.6084 13.0673H55.4687ZM43.6758 31.5522H37.3334C37.0847 31.5522 36.8463 31.6509 36.6704 31.8268C36.4946 32.0026 36.3959 32.241 36.3959 32.4897V57.6891C36.3959 57.9377 36.4946 58.1762 36.6704 58.352C36.8463 58.5278 37.0847 58.6266 37.3334 58.6266H43.6758C43.9244 58.6266 44.1629 58.5278 44.3387 58.352C44.5145 58.1762 44.6133 57.9377 44.6133 57.6891V32.4897C44.6133 32.241 44.5145 32.0026 44.3387 31.8268C44.1629 31.6509 43.9244 31.5522 43.6758 31.5522ZM42.7383 56.7516H38.2709V33.4272H42.7383V56.7516ZM55.4522 25.5639H49.1099C48.8612 25.5639 48.6228 25.6627 48.447 25.8385C48.2712 26.0143 48.1724 26.2528 48.1724 26.5014V57.6891C48.1724 57.9377 48.2712 58.1762 48.447 58.352C48.6228 58.5278 48.8612 58.6266 49.1099 58.6266H55.4522C55.7008 58.6266 55.9393 58.5278 56.1151 58.352C56.2909 58.1762 56.3897 57.9377 56.3897 57.6891V26.5014C56.3897 26.2528 56.2909 26.0143 56.1151 25.8385C55.9393 25.6627 55.7008 25.5639 55.4522 25.5639ZM54.5147 56.7516H50.0474V27.4389H54.5147V56.7516ZM8.2173 50.8247H1.875C1.62636 50.8247 1.3879 50.9235 1.21209 51.0993C1.03627 51.2751 0.9375 51.5136 0.9375 51.7622V57.6891C0.9375 57.9377 1.03627 58.1762 1.21209 58.352C1.3879 58.5278 1.62636 58.6266 1.875 58.6266H8.21719C8.46583 58.6266 8.70428 58.5278 8.8801 58.352C9.05592 58.1762 9.15469 57.9377 9.15469 57.6891V51.7622C9.1547 51.6391 9.13047 51.5172 9.08337 51.4035C9.03627 51.2897 8.96722 51.1864 8.88018 51.0993C8.79313 51.0123 8.68979 50.9432 8.57605 50.8961C8.46232 50.849 8.34041 50.8247 8.2173 50.8247ZM7.2798 56.7516H2.8125V52.6997H7.27969L7.2798 56.7516ZM43.9213 15.0341C44.0404 14.9149 44.1251 14.7659 44.1667 14.6026C44.2082 14.4394 44.205 14.2679 44.1574 14.1063C44.1098 13.9447 44.0195 13.799 43.8961 13.6843C43.7726 13.5697 43.6206 13.4904 43.4559 13.4548L39.0197 12.4988L41.1188 10.3997C41.2067 10.3128 41.2765 10.2095 41.3244 10.0955C41.3722 9.98151 41.397 9.85921 41.3973 9.73562C41.3977 9.61203 41.3736 9.48958 41.3265 9.37533C41.2794 9.26107 41.2101 9.15726 41.1227 9.06987C41.0353 8.98248 40.9315 8.91324 40.8173 8.86612C40.703 8.819 40.5805 8.79494 40.457 8.79532C40.3334 8.7957 40.2111 8.82052 40.0971 8.86834C39.9831 8.91616 39.8797 8.98604 39.7929 9.07397L37.6939 11.1729L36.7378 6.73666C36.7023 6.57193 36.6231 6.41981 36.5084 6.29631C36.3938 6.17281 36.2479 6.08249 36.0863 6.03487C35.9247 5.98724 35.7532 5.98407 35.5899 6.02568C35.4266 6.06729 35.2775 6.15214 35.1584 6.27131L28.2499 13.1799C28.1391 13.2907 28.0579 13.4275 28.0136 13.5778C27.9693 13.7281 27.9634 13.8871 27.9964 14.0403L29.2075 19.6594L28.359 20.5078C25.551 18.0105 21.8551 16.4908 17.8105 16.4908C9.04793 16.4908 1.91906 23.6196 1.91906 32.3822C1.91906 39.4104 6.50555 45.3866 12.8425 47.4774V57.689C12.8425 57.9376 12.9412 58.1761 13.117 58.3519C13.2929 58.5277 13.5313 58.6265 13.78 58.6265H20.1223C20.3709 58.6265 20.6094 58.5277 20.7852 58.3519C20.961 58.1761 21.0598 57.9376 21.0598 57.689V47.9391C22.2898 47.6824 23.4847 47.2795 24.6191 46.7391V57.6891C24.6191 57.9377 24.7179 58.1762 24.8937 58.352C25.0695 58.5278 25.308 58.6266 25.5566 58.6266H31.899C32.1477 58.6266 32.3861 58.5278 32.5619 58.352C32.7378 58.1762 32.8365 57.9377 32.8365 57.6891V39.1465C32.8366 39.0103 32.8069 38.8758 32.7496 38.7523C32.6922 38.6288 32.6086 38.5193 32.5045 38.4314C33.2754 36.5658 33.702 34.523 33.702 32.3822C33.702 28.3375 32.1823 24.6417 29.6849 21.8336L30.5332 20.9853L36.1525 22.1963C36.3057 22.2293 36.4647 22.2234 36.615 22.1791C36.7653 22.1349 36.9022 22.0536 37.013 21.9428L43.9213 15.0341ZM29.9367 14.1444L35.2672 8.81381L36.1158 12.7507L30.7853 18.0814L29.9367 14.1444ZM19.1846 56.7516H14.7173V47.9705C15.736 48.1723 16.772 48.2738 17.8105 48.2737C18.2735 48.2737 18.7316 48.2526 19.1848 48.2135V56.7516H19.1846ZM30.9615 56.7517H26.4941V45.6846C28.2576 44.5292 29.7758 43.0371 30.9615 41.2939V56.7517ZM31.8268 32.3822C31.8268 40.111 25.5391 46.3987 17.8105 46.3987C10.0818 46.3987 3.79406 40.111 3.79406 32.3822C3.79406 24.6535 10.0818 18.3658 17.8105 18.3658C21.3382 18.3658 24.5652 19.6763 27.0315 21.8352L24.5542 24.3127C22.7268 22.783 20.3745 21.8607 17.8105 21.8607C12.0089 21.8607 7.28895 26.5806 7.28895 32.3822C7.28895 38.1838 12.0089 42.9038 17.8105 42.9038C23.6121 42.9038 28.332 38.1838 28.332 32.3822C28.332 29.8183 27.4097 27.466 25.8799 25.6385L28.3573 23.1611C30.5164 25.6275 31.8268 28.8545 31.8268 32.3822ZM20.7463 32.3822C20.7463 34.001 19.4293 35.3181 17.8105 35.3181C16.1917 35.3181 14.8746 34.001 14.8746 32.3822C14.8746 30.7634 16.1916 29.4463 17.8105 29.4463C18.2786 29.4463 18.7211 29.5569 19.1141 29.7526L17.1476 31.7193C17.0597 31.8061 16.9898 31.9095 16.942 32.0235C16.8942 32.1375 16.8694 32.2598 16.869 32.3834C16.8686 32.507 16.8927 32.6294 16.9398 32.7437C16.9869 32.8579 17.0562 32.9617 17.1436 33.0491C17.231 33.1365 17.3348 33.2058 17.4491 33.2529C17.5633 33.3 17.6858 33.3241 17.8094 33.3237C17.933 33.3233 18.0553 33.2985 18.1692 33.2507C18.2832 33.2028 18.3866 33.133 18.4734 33.045L20.44 31.0785C20.6417 31.4835 20.7466 31.9298 20.7463 32.3822ZM20.4827 28.3841C19.6927 27.8534 18.7623 27.5704 17.8105 27.5714C15.1577 27.5714 12.9996 29.7296 12.9996 32.3823C12.9996 35.0351 15.1577 37.1932 17.8105 37.1932C20.4632 37.1932 22.6213 35.0351 22.6213 32.3823C22.6223 31.4306 22.3394 30.5001 21.8086 29.7101L24.5475 26.9712C25.7407 28.4537 26.457 30.3355 26.457 32.3823C26.457 37.1501 22.5782 41.0289 17.8105 41.0289C13.0429 41.0289 9.16395 37.15 9.16395 32.3823C9.16395 27.6147 13.0429 23.7358 17.8105 23.7358C19.8573 23.7358 21.7391 24.4521 23.2216 25.6453L20.4827 28.3841ZM36.0482 20.2558L32.1111 19.4073L37.4418 14.0767L41.3788 14.9251L36.0482 20.2558Z" fill="#2E2E2E"/>
</svg>
