<svg width="34" height="34" viewBox="0 0 34 34" fill="none" xmlns="http://www.w3.org/2000/svg">
<path d="M17.2409 17.0005H32.5149V7.95117H1.48828L17.2409 17.0005Z" fill="#303E99"/>
<path d="M1.48828 26.0493H32.5149V17H17.2409L1.48828 26.0493Z" fill="#BD1F34"/>
<path d="M1.48828 7.95117V26.0498L17.2409 17.0005L1.48828 7.95117ZM2.3165 9.3558L2.91787 9.90086L3.61594 9.49233L3.27966 10.234L3.88528 10.7716L3.08044 10.685L2.75478 11.4261L2.59116 10.6319L1.78312 10.5522L2.48809 10.1516L2.3165 9.3558ZM3.61594 24.3094L2.91787 23.9009L2.3165 24.446L2.48863 23.6555L1.78366 23.2549L2.59169 23.172L2.75531 22.381L3.08097 23.1215L3.88581 23.0312L3.28019 23.5731L3.61594 24.3094ZM10.1933 17.3724L8.60384 17.197C8.59959 17.2411 8.598 17.2868 8.59056 17.3299L9.95853 17.5817L9.69291 17.7947L8.56081 17.4839L8.56559 17.4462C8.5215 17.6259 8.45153 17.7982 8.35787 17.9578L9.36512 18.5204L9.41187 18.8599L8.27712 18.0949C8.25162 18.131 8.22081 18.1629 8.19266 18.1974L9.40125 19.1207L9.44694 19.6732L8.94597 19.695L7.93181 18.4635C7.89781 18.4922 7.86488 18.523 7.82822 18.5496L8.63413 19.6844L8.29678 19.6445L7.69966 18.6373L7.71666 18.624C7.55435 18.7246 7.37774 18.8 7.19284 18.8476L7.49831 19.959L7.28953 20.2268L7.04037 18.8827C6.99628 18.8907 6.95006 18.8923 6.90491 18.8965L7.09881 20.4L6.73916 20.826L6.37047 20.4796L6.53091 18.897C6.48681 18.8928 6.44166 18.8907 6.39809 18.8838L6.16169 20.2523L5.94919 19.985L6.24669 18.8508L6.25041 18.8514C6.06801 18.805 5.89359 18.7316 5.73297 18.6335L5.15869 19.6339L4.81922 19.6695L5.60281 18.5491C5.56669 18.523 5.53428 18.4928 5.50028 18.4641L4.55944 19.6557L4.00694 19.695L3.99153 19.193L5.23838 18.1969C5.20969 18.1613 5.17728 18.1289 5.15125 18.0906L4.00747 18.8816L4.05156 18.5422L5.06784 17.9605L5.09122 17.9913C4.99417 17.8314 4.92114 17.6581 4.87447 17.477L3.76044 17.783L3.49162 17.5742L4.84047 17.324C4.83303 17.2799 4.83144 17.2348 4.82719 17.1901L3.32109 17.3867L2.89662 17.0255L3.23981 16.6568L4.82666 16.8172C4.83091 16.7726 4.83303 16.7274 4.83994 16.6844L3.46719 16.4448L3.736 16.235L4.86809 16.534L4.86544 16.5564C4.91006 16.371 4.98337 16.1978 5.07741 16.0379L4.07016 15.4684L4.02872 15.1337L5.15869 15.9035C5.18472 15.8668 5.21606 15.8344 5.24475 15.7993L4.04253 14.8734L3.99525 14.3177L4.49781 14.3001L5.50612 15.5364C5.54119 15.5077 5.57359 15.4763 5.61078 15.4503L4.80753 14.3102L5.14859 14.3501L5.73987 15.3642L5.7165 15.3823C5.88279 15.2797 6.06397 15.2036 6.25359 15.1565L5.95184 14.043L6.16275 13.7721L6.40606 15.1246C6.45016 15.1172 6.49584 15.1151 6.541 15.1114L6.35453 13.6026L6.72109 13.1797L7.085 13.5266L6.91128 15.113C6.95537 15.1172 7.00053 15.1188 7.04409 15.1262L7.29378 13.7572L7.50575 14.025L7.19656 15.1544L7.15831 15.1501C7.36178 15.1985 7.5525 15.2798 7.72462 15.3876L8.31484 14.4005L8.65537 14.365L7.85159 15.4763C7.88772 15.5029 7.92119 15.5326 7.95519 15.5619L8.91409 14.382L9.46925 14.3533L9.47191 14.8558L8.21391 15.8323C8.241 15.8668 8.27341 15.8976 8.29784 15.9343L9.45278 15.1655L9.4055 15.5008L8.37912 16.0676L8.34566 16.0219C8.44181 16.1813 8.51512 16.3545 8.56134 16.5399L9.67591 16.2371L9.94259 16.4469L8.59216 16.694C8.59959 16.738 8.60172 16.7832 8.60544 16.8278L10.1168 16.6414L10.5376 17.0069L10.1933 17.3724ZM14.0561 17.4016L13.2852 17.6571L13.7649 17.0042L13.2831 16.3502L14.0523 16.6031L14.5252 15.946L14.5209 16.7556L15.2949 17.0005L14.5214 17.2459L14.5273 18.0587L14.0561 17.4016Z" fill="#E1E1E1"/>
<path d="M3.08194 23.1207L2.75628 22.3807L2.59319 23.1717L1.78516 23.2546L2.49013 23.6551L2.318 24.4462L2.91937 23.9006L3.61744 24.3091L3.28116 23.5722L3.88678 23.0309L3.08194 23.1207ZM8.608 16.8291C8.60428 16.7845 8.60163 16.7388 8.59472 16.6952L9.94516 16.4482L9.67847 16.2383L8.56391 16.5412C8.51832 16.3587 8.44561 16.1841 8.34822 16.0232L8.38169 16.0689L9.40806 15.502L9.45534 15.1668L8.30041 15.9355C8.27597 15.8989 8.24356 15.8681 8.21647 15.8335L9.47447 14.8571L9.47181 14.3545L8.91666 14.3832L7.95775 15.5631C7.92375 15.5339 7.89028 15.5047 7.85416 15.4776L8.65794 14.3662L8.31741 14.4018L7.72719 15.3889C7.55247 15.2797 7.36123 15.1995 7.16087 15.1514L7.19912 15.1557L7.50831 14.0262L7.29634 13.7585L7.04666 15.1275C7.00309 15.1201 6.95794 15.1185 6.91384 15.1142L7.08756 13.5279L6.72366 13.181L6.35709 13.6039L6.54356 15.1126C6.49841 15.1169 6.45272 15.119 6.40863 15.1259L6.16531 13.7733L5.95441 14.0443L6.25616 15.1578C6.06384 15.2056 5.88322 15.2821 5.71906 15.3836L5.74244 15.3655L5.15116 14.3513L4.81009 14.3115L5.61334 15.4516C5.57669 15.4776 5.54375 15.5089 5.50869 15.5376L4.50038 14.3014L3.99675 14.3173L4.0435 14.8736L5.24572 15.7995C5.21756 15.8341 5.18622 15.8665 5.15966 15.9037L4.03022 15.1333L4.07112 15.4686L5.07838 16.0381C4.98225 16.1994 4.91081 16.3741 4.86641 16.5566L4.86906 16.5342L3.73697 16.2352L3.46816 16.445L4.84091 16.6846C4.83347 16.7282 4.83134 16.7733 4.82763 16.8174L3.24078 16.657L2.89759 17.0257L3.32206 17.3869L4.82816 17.1903C4.83241 17.235 4.834 17.2801 4.84144 17.3242L3.49312 17.5739L3.763 17.7837L4.87703 17.4777C4.92431 17.6616 4.99762 17.8337 5.09378 17.992L5.07041 17.9612L4.05412 18.5429L4.01003 18.8824L5.15381 18.0913C5.17984 18.1291 5.21225 18.1615 5.24094 18.1976L3.99303 19.1926L4.00791 19.6941L4.56041 19.6548L5.50125 18.4632C5.53525 18.4919 5.56766 18.5222 5.60378 18.5482L4.82019 19.6686L5.15966 19.633L5.73394 18.6327C5.89331 18.7294 6.06597 18.8032 6.25137 18.8505L6.24766 18.85L5.95016 19.9842L6.16266 20.2514L6.39906 18.8829C6.44262 18.8903 6.48778 18.8919 6.53187 18.8962L6.37144 20.4788L6.74012 20.8252L7.09978 20.3991L6.90587 18.8957C6.95103 18.8914 6.99725 18.8898 7.04134 18.8818L7.2905 20.2259L7.49928 19.9582L7.19381 18.8468C7.38134 18.7979 7.55719 18.723 7.71762 18.6231L7.70063 18.6364L8.29775 19.6437L8.63509 19.6835L7.82919 18.5488C7.86531 18.5222 7.89825 18.4919 7.93278 18.4627L8.94694 19.6941L9.44791 19.6723L9.40222 19.1198L8.19362 18.1965C8.22125 18.162 8.25259 18.1301 8.27809 18.094L9.41284 18.859L9.36609 18.5195L8.35884 17.9569C8.45075 17.7986 8.523 17.6281 8.56656 17.4453L8.56178 17.4831L9.69387 17.7938L9.9595 17.5808L8.59153 17.329C8.59897 17.2854 8.60056 17.2403 8.60481 17.1962L10.1943 17.3715L10.5396 17.0071L10.1189 16.6416L8.608 16.8291ZM15.2964 17.0002L14.5229 16.7552L14.5267 15.9456L14.0544 16.6028L13.2846 16.3499L13.7664 17.0039L13.2862 17.6568L14.0576 17.4013L14.5282 18.0584L14.5229 17.2456L15.2964 17.0002ZM2.59319 10.631L2.75628 11.4252L3.08194 10.6841L3.88678 10.7707L3.28116 10.2336L3.61744 9.49253L2.91937 9.90106L2.318 9.35547L2.49013 10.1502L1.78516 10.5508L2.59319 10.631Z" fill="#F4D130"/>
</svg>
