<svg width="30" height="30" viewBox="0 0 30 30" fill="none" xmlns="http://www.w3.org/2000/svg">
<g clip-path="url(#clip0_2122_5668)">
<mask id="mask0_2122_5668" style="mask-type:luminance" maskUnits="userSpaceOnUse" x="0" y="0" width="30" height="30">
<path d="M29.5 29.5V0.5H0.5V29.5H29.5Z" fill="white" stroke="white"/>
</mask>
<g mask="url(#mask0_2122_5668)">
<path d="M24.2949 26.9984C19.9339 29.8383 14.036 29.3448 10.2091 25.5179C5.81571 21.1245 5.81571 14.0014 10.2091 9.60809C14.6025 5.21468 21.7256 5.21468 26.119 9.60809C29.9423 13.4314 30.4384 19.3218 27.6074 23.6816" stroke="#3692E6" stroke-miterlimit="10" stroke-linecap="round" stroke-linejoin="round"/>
<path d="M18.1638 26.0664C13.4673 26.0664 9.66016 22.2592 9.66016 17.5628C9.66016 12.8663 13.4673 9.05915 18.1638 9.05915C22.8602 9.05915 26.6674 12.8663 26.6674 17.5628C26.6674 22.2592 22.8602 26.0664 18.1638 26.0664Z" stroke="#3692E6" stroke-miterlimit="10" stroke-linecap="round" stroke-linejoin="round"/>
<path d="M16.0449 4H20.2637C21.0403 4 21.6699 3.37041 21.6699 2.59375C21.6699 1.8171 21.0403 1.18751 20.2637 1.18751H16.0449C15.2683 1.18751 14.6387 1.8171 14.6387 2.59375C14.6387 3.37041 15.2683 4 16.0449 4Z" stroke="#3692E6" stroke-miterlimit="10" stroke-linecap="round" stroke-linejoin="round"/>
<path d="M20.159 6.31299V3.99995H16.1504V6.31299" stroke="#3692E6" stroke-miterlimit="10" stroke-linecap="round" stroke-linejoin="round"/>
<path d="M19.2754 16.4521L22.2855 13.442" stroke="#3692E6" stroke-miterlimit="10" stroke-linecap="round" stroke-linejoin="round"/>
<path d="M16.9297 17.5631C16.9297 18.245 17.4825 18.7979 18.1645 18.7979C18.8465 18.7979 19.3993 18.245 19.3993 17.5631C19.3993 16.8811 18.8465 16.3282 18.1645 16.3282C17.4825 16.3282 16.9297 16.8811 16.9297 17.5631Z" stroke="#3692E6" stroke-miterlimit="10" stroke-linecap="round" stroke-linejoin="round"/>
<path d="M24.4295 17.5703H23.8867" stroke="#3692E6" stroke-miterlimit="10" stroke-linecap="round" stroke-linejoin="round"/>
<path d="M11.8984 17.5557H12.4412" stroke="#3692E6" stroke-miterlimit="10" stroke-linecap="round" stroke-linejoin="round"/>
<path d="M18.1719 11.298V11.8408" stroke="#3692E6" stroke-miterlimit="10" stroke-linecap="round" stroke-linejoin="round"/>
<path d="M18.1562 23.8276V23.2848" stroke="#3692E6" stroke-miterlimit="10" stroke-linecap="round" stroke-linejoin="round"/>
<path d="M17.2372 16.6362L15.6465 15.0455" stroke="#3692E6" stroke-miterlimit="10" stroke-linecap="round" stroke-linejoin="round"/>
<path d="M19.0371 16.6899L22.1996 13.5275" stroke="#3692E6" stroke-miterlimit="10" stroke-linecap="round" stroke-linejoin="round"/>
<path d="M7.42739 21.1782H2.92969" stroke="#3692E6" stroke-miterlimit="10" stroke-linecap="round" stroke-linejoin="round"/>
<path d="M6.91411 17.7544H3.75" stroke="#3692E6" stroke-miterlimit="10" stroke-linecap="round" stroke-linejoin="round"/>
<path d="M7.27111 14.3306H0.585938" stroke="#3692E6" stroke-miterlimit="10" stroke-linecap="round" stroke-linejoin="round"/>
<path d="M8.75552 10.9062H4.58008" stroke="#3692E6" stroke-miterlimit="10" stroke-linecap="round" stroke-linejoin="round"/>
</g>
</g>
<defs>
<clipPath id="clip0_2122_5668">
<rect width="30" height="30" fill="white"/>
</clipPath>
</defs>
</svg>
