<svg width="15" height="15" viewBox="0 0 15 15" fill="none" xmlns="http://www.w3.org/2000/svg">
<path d="M9.61481 12.6175V11.4159C9.61481 10.7784 9.3616 10.1671 8.91089 9.71643C8.46018 9.26572 7.84888 9.01251 7.21147 9.01251H3.60646C2.96906 9.01251 2.35776 9.26572 1.90705 9.71643C1.45633 10.1671 1.20313 10.7784 1.20312 11.4159V12.6175" stroke="#2563EB" stroke-width="1.20167" stroke-linecap="round" stroke-linejoin="round"/>
<path d="M9.61328 1.87939C10.1287 2.013 10.5851 2.31396 10.9109 2.73502C11.2367 3.15608 11.4135 3.67342 11.4135 4.20583C11.4135 4.73823 11.2367 5.25557 10.9109 5.67663C10.5851 6.0977 10.1287 6.39865 9.61328 6.53226" stroke="#2563EB" stroke-width="1.20167" stroke-linecap="round" stroke-linejoin="round"/>
<path d="M13.2185 12.6175V11.4158C13.2181 10.8833 13.0409 10.366 12.7146 9.94515C12.3884 9.52429 11.9316 9.2237 11.416 9.09058" stroke="#2563EB" stroke-width="1.20167" stroke-linecap="round" stroke-linejoin="round"/>
<path d="M5.4092 6.60917C6.73653 6.60917 7.81254 5.53316 7.81254 4.20583C7.81254 2.8785 6.73653 1.80249 5.4092 1.80249C4.08187 1.80249 3.00586 2.8785 3.00586 4.20583C3.00586 5.53316 4.08187 6.60917 5.4092 6.60917Z" stroke="#2563EB" stroke-width="1.20167" stroke-linecap="round" stroke-linejoin="round"/>
</svg>
