<svg width="8" height="8" viewBox="0 0 8 8" fill="none" xmlns="http://www.w3.org/2000/svg">
<g clip-path="url(#clip0_2122_4770)">
<path d="M3.46358 0.689421C3.47674 0.662823 3.49708 0.640433 3.5223 0.624779C3.54751 0.609125 3.5766 0.60083 3.60628 0.60083C3.63596 0.60083 3.66504 0.609125 3.69026 0.624779C3.71547 0.640433 3.73581 0.662823 3.74898 0.689421L4.44294 2.09507C4.48866 2.18759 4.55614 2.26764 4.6396 2.32833C4.72306 2.38903 4.82 2.42857 4.9221 2.44356L6.47406 2.67067C6.50347 2.67493 6.5311 2.68734 6.55382 2.70648C6.57654 2.72563 6.59346 2.75075 6.60265 2.77901C6.61184 2.80726 6.61294 2.83753 6.60582 2.86638C6.59871 2.89523 6.58366 2.92151 6.56238 2.94225L5.44003 4.03517C5.36601 4.1073 5.31063 4.19634 5.27865 4.29462C5.24668 4.3929 5.23906 4.49748 5.25647 4.59935L5.52144 6.1435C5.52663 6.17289 5.52345 6.20315 5.51227 6.23083C5.5011 6.2585 5.48236 6.28248 5.45821 6.30002C5.43406 6.31756 5.40547 6.32796 5.3757 6.33003C5.34592 6.3321 5.31616 6.32576 5.28982 6.31173L3.90249 5.58232C3.81108 5.53432 3.70937 5.50924 3.60613 5.50924C3.50288 5.50924 3.40118 5.53432 3.30976 5.58232L1.92274 6.31173C1.8964 6.32568 1.86668 6.33195 1.83695 6.32983C1.80723 6.32772 1.77869 6.31731 1.75459 6.29978C1.73049 6.28225 1.71179 6.25832 1.70063 6.23069C1.68946 6.20306 1.68627 6.17285 1.69142 6.1435L1.95608 4.59965C1.97357 4.49773 1.96599 4.39309 1.93402 4.29474C1.90204 4.1964 1.84661 4.10732 1.77253 4.03517L0.65017 2.94255C0.628718 2.92183 0.613517 2.89551 0.606298 2.86657C0.599078 2.83763 0.600132 2.80725 0.609337 2.77888C0.618542 2.75051 0.63553 2.7253 0.658364 2.70612C0.681199 2.68693 0.708963 2.67455 0.738493 2.67037L2.29015 2.44356C2.39237 2.42869 2.48944 2.3892 2.57302 2.32849C2.65659 2.26779 2.72416 2.18768 2.76991 2.09507L3.46358 0.689421Z" stroke="#FACC15" stroke-width="1.20167" stroke-linecap="round" stroke-linejoin="round"/>
</g>
<defs>
<clipPath id="clip0_2122_4770">
<rect width="7.21002" height="7.21002" fill="white"/>
</clipPath>
</defs>
</svg>
