<svg width="30" height="30" viewBox="0 0 30 30" fill="none" xmlns="http://www.w3.org/2000/svg">
<path d="M10.7812 17.5154V20.6251C10.7812 20.7494 10.8306 20.8686 10.9185 20.9565C11.0065 21.0444 11.1257 21.0938 11.25 21.0938C11.3743 21.0938 11.4935 21.0444 11.5815 20.9565C11.6694 20.8686 11.7188 20.7494 11.7188 20.6251V17.3438C11.7187 17.233 11.6795 17.1257 11.6081 17.041L7.08469 11.6949C6.98748 11.5797 6.93759 11.432 6.94506 11.2814C6.95254 11.1309 7.01683 10.9888 7.12496 10.8838C7.2331 10.7788 7.37703 10.7188 7.52772 10.7158C7.6784 10.7127 7.82462 10.767 7.93687 10.8676L11.8744 14.4113C11.9603 14.4886 12.0719 14.5314 12.1875 14.5313H17.8125C17.9283 14.5314 18.0401 14.4884 18.1261 14.4108L22.0636 10.8676C22.1758 10.767 22.3221 10.7127 22.4728 10.7158C22.6234 10.7188 22.7674 10.7788 22.8755 10.8838C22.9836 10.9888 23.0479 11.1309 23.0554 11.2814C23.0629 11.432 23.013 11.5797 22.9158 11.6949L18.3923 17.041C18.3208 17.1257 18.2814 17.2329 18.2812 17.3438V20.6251C18.2812 20.7494 18.3306 20.8686 18.4185 20.9565C18.5065 21.0444 18.6257 21.0938 18.75 21.0938C18.8743 21.0938 18.9935 21.0444 19.0815 20.9565C19.1694 20.8686 19.2188 20.7494 19.2188 20.6251V17.5154L23.6316 12.3005C23.8828 12.004 24.0121 11.623 23.9931 11.2348C23.9741 10.8465 23.8083 10.48 23.5293 10.2094C23.2502 9.93873 22.8788 9.78422 22.4902 9.7771C22.1015 9.76998 21.7247 9.91078 21.4359 10.171L17.633 13.5938H17.0906C17.4544 13.1897 17.6932 12.6889 17.7782 12.1519C17.8631 11.6149 17.7907 11.0647 17.5695 10.5681C17.3483 10.0714 16.9879 9.64948 16.5319 9.35339C16.076 9.05729 15.5439 8.89971 15.0002 8.89971C14.4565 8.89971 13.9245 9.05729 13.4685 9.35339C13.0125 9.64948 12.6522 10.0714 12.431 10.5681C12.2098 11.0647 12.1373 11.6149 12.2223 12.1519C12.3073 12.6889 12.5461 13.1897 12.9098 13.5938H12.3675L8.56406 10.171C8.27531 9.91078 7.89848 9.76998 7.50983 9.7771C7.12119 9.78422 6.74977 9.93873 6.47074 10.2094C6.19172 10.48 6.02593 10.8465 6.00694 11.2348C5.98794 11.623 6.11716 12.004 6.36844 12.3005L10.7812 17.5154ZM13.125 11.7188C13.125 11.348 13.235 10.9855 13.441 10.6771C13.647 10.3688 13.9399 10.1284 14.2825 9.98654C14.6251 9.84462 15.0021 9.80749 15.3658 9.87984C15.7295 9.95218 16.0636 10.1308 16.3258 10.393C16.588 10.6552 16.7666 10.9893 16.839 11.353C16.9113 11.7167 16.8742 12.0937 16.7323 12.4363C16.5904 12.779 16.35 13.0718 16.0417 13.2778C15.7334 13.4838 15.3708 13.5938 15 13.5938C14.5029 13.5933 14.0262 13.3956 13.6747 13.0441C13.3232 12.6926 13.1255 12.2159 13.125 11.7188ZM13.0177 5.62834L12.7102 7.42084C12.6954 7.50698 12.7051 7.59552 12.7381 7.67646C12.771 7.7574 12.8259 7.82752 12.8966 7.8789C12.9673 7.93028 13.0509 7.96088 13.1381 7.96724C13.2252 7.9736 13.3124 7.95548 13.3898 7.9149L15 7.06881L16.6102 7.9149C16.6876 7.95548 16.7748 7.9736 16.8619 7.96724C16.9491 7.96088 17.0327 7.93028 17.1034 7.8789C17.1741 7.82752 17.229 7.7574 17.2619 7.67646C17.2949 7.59552 17.3046 7.50698 17.2898 7.42084L16.9819 5.62834L18.2845 4.35944C18.3472 4.29836 18.3915 4.22097 18.4125 4.136C18.4335 4.05104 18.4302 3.9619 18.4032 3.87868C18.3761 3.79546 18.3263 3.72148 18.2593 3.66511C18.1924 3.60875 18.111 3.57225 18.0244 3.55975L16.2248 3.29819L15.4205 1.66787C15.3774 1.59467 15.316 1.53399 15.2423 1.49182C15.1686 1.44966 15.0852 1.42747 15.0002 1.42747C14.9153 1.42747 14.8319 1.44966 14.7582 1.49182C14.6845 1.53399 14.623 1.59467 14.58 1.66787L13.7752 3.29819L11.9752 3.55975C11.8886 3.57232 11.8072 3.60887 11.7404 3.66526C11.6735 3.72166 11.6237 3.79565 11.5967 3.87885C11.5697 3.96206 11.5665 4.05117 11.5875 4.1361C11.6085 4.22103 11.6528 4.2984 11.7155 4.35944L13.0177 5.62834ZM14.1534 4.19068C14.2287 4.1798 14.3001 4.15077 14.3616 4.1061C14.4231 4.06143 14.4728 4.00245 14.5064 3.93428L15 2.93444L15.4936 3.93428C15.5272 4.00245 15.5769 4.06143 15.6384 4.1061C15.6999 4.15077 15.7713 4.1798 15.8466 4.19068L16.9495 4.351L16.1513 5.12912C16.0969 5.18222 16.0563 5.24771 16.0329 5.31997C16.0094 5.39223 16.0039 5.46909 16.0167 5.54397L16.2052 6.64319L15.218 6.12428C15.1507 6.08897 15.0759 6.07052 15 6.07052C14.9241 6.07052 14.8493 6.08897 14.782 6.12428L13.7944 6.64319L13.9833 5.54397C13.9961 5.46909 13.9906 5.39223 13.9671 5.31997C13.9437 5.24771 13.9031 5.18222 13.8488 5.12912L13.05 4.351L14.1534 4.19068ZM20.1562 4.21881H22.0312C22.1556 4.21881 22.2748 4.2682 22.3627 4.3561C22.4506 4.44401 22.5 4.56324 22.5 4.68756C22.5 4.81188 22.4506 4.93111 22.3627 5.01902C22.2748 5.10692 22.1556 5.15631 22.0312 5.15631H20.1562C20.0319 5.15631 19.9127 5.10692 19.8248 5.01902C19.7369 4.93111 19.6875 4.81188 19.6875 4.68756C19.6875 4.56324 19.7369 4.44401 19.8248 4.3561C19.9127 4.2682 20.0319 4.21881 20.1562 4.21881ZM18.8287 2.60397C18.7946 2.55275 18.7708 2.49531 18.7589 2.43492C18.7469 2.37453 18.7469 2.31237 18.759 2.25199C18.7711 2.19162 18.7949 2.13421 18.8291 2.08305C18.8634 2.03188 18.9074 1.98797 18.9586 1.95381L20.3648 1.01631C20.4683 0.947312 20.5949 0.92223 20.7168 0.94658C20.8387 0.970931 20.946 1.04272 21.015 1.14615C21.084 1.24959 21.1091 1.3762 21.0847 1.49812C21.0604 1.62005 20.9886 1.72731 20.8852 1.79631L19.4789 2.73381C19.4277 2.76798 19.3702 2.79173 19.3099 2.8037C19.2495 2.81567 19.1873 2.81562 19.1269 2.80356C19.0666 2.79151 19.0091 2.76767 18.958 2.73343C18.9068 2.69918 18.8629 2.65519 18.8287 2.60397ZM18.9586 7.42131C18.9074 7.38715 18.8634 7.34323 18.8292 7.29207C18.7949 7.2409 18.7711 7.1835 18.759 7.12312C18.747 7.06275 18.7469 7.00059 18.7589 6.9402C18.7708 6.87981 18.7946 6.82237 18.8287 6.77115C18.8629 6.71994 18.9068 6.67595 18.958 6.64171C19.0092 6.60747 19.0666 6.58364 19.1269 6.57158C19.1873 6.55952 19.2495 6.55948 19.3099 6.57144C19.3702 6.5834 19.4277 6.60715 19.4789 6.64131L20.8852 7.57881C20.9886 7.64781 21.0604 7.75507 21.0847 7.877C21.1091 7.99892 21.084 8.12553 21.015 8.22897C20.946 8.3324 20.8387 8.40419 20.7168 8.42854C20.5949 8.45289 20.4683 8.42781 20.3648 8.35881L18.9586 7.42131ZM7.5 4.68756C7.5 4.56324 7.54939 4.44401 7.63729 4.3561C7.7252 4.2682 7.84443 4.21881 7.96875 4.21881H9.84375C9.96807 4.21881 10.0873 4.2682 10.1752 4.3561C10.2631 4.44401 10.3125 4.56324 10.3125 4.68756C10.3125 4.81188 10.2631 4.93111 10.1752 5.01902C10.0873 5.10692 9.96807 5.15631 9.84375 5.15631H7.96875C7.84443 5.15631 7.7252 5.10692 7.63729 5.01902C7.54939 4.93111 7.5 4.81188 7.5 4.68756ZM8.64609 1.79631C8.54266 1.72731 8.47087 1.62005 8.44652 1.49812C8.42217 1.3762 8.44725 1.24959 8.51625 1.14615C8.58525 1.04272 8.69251 0.970931 8.81444 0.94658C8.93636 0.92223 9.06297 0.947312 9.16641 1.01631L10.5727 1.95381C10.6239 1.98797 10.6679 2.03189 10.7021 2.08305C10.7363 2.13422 10.7602 2.19162 10.7722 2.252C10.7843 2.31237 10.7843 2.37453 10.7724 2.43492C10.7604 2.49531 10.7367 2.55275 10.7025 2.60397C10.6683 2.65518 10.6244 2.69917 10.5733 2.73341C10.5221 2.76765 10.4647 2.79148 10.4043 2.80354C10.3439 2.8156 10.2818 2.81565 10.2214 2.80368C10.161 2.79172 10.1036 2.76797 10.0523 2.73381L8.64609 1.79631ZM11.1713 6.77115C11.2054 6.82237 11.2292 6.87981 11.2411 6.9402C11.2531 7.0006 11.2531 7.06275 11.241 7.12313C11.2289 7.1835 11.2051 7.24091 11.1709 7.29207C11.1366 7.34324 11.0926 7.38715 11.0414 7.42131L9.63516 8.35881C9.53172 8.42781 9.40511 8.45289 9.28319 8.42854C9.16126 8.40419 9.054 8.3324 8.985 8.22897C8.916 8.12553 8.89092 7.99892 8.91527 7.877C8.93962 7.75507 9.01141 7.64781 9.11484 7.57881L10.5211 6.64131C10.5723 6.60708 10.6297 6.58328 10.6901 6.57128C10.7505 6.55927 10.8127 6.55931 10.8731 6.57137C10.9335 6.58343 10.9909 6.60728 11.0421 6.64156C11.0932 6.67585 11.1371 6.71988 11.1713 6.77115ZM25.5183 22.5104C25.8847 22.1072 26.1262 21.6062 26.2133 21.0684C26.3005 20.5306 26.2295 19.979 26.0091 19.4807C25.7886 18.9825 25.4282 18.559 24.9716 18.2617C24.515 17.9644 23.9819 17.8062 23.437 17.8062C22.8922 17.8062 22.3591 17.9644 21.9025 18.2617C21.4459 18.559 21.0855 18.9825 20.865 19.4807C20.6446 19.979 20.5736 20.5306 20.6607 21.0684C20.7478 21.6062 20.9893 22.1072 21.3558 22.5104C20.6997 22.5537 20.0716 22.7927 19.5525 23.1964C19.0335 23.6001 18.6474 24.1501 18.4439 24.7754C18.0237 24.5469 17.5583 24.4137 17.0808 24.3854C17.4474 23.9822 17.689 23.4813 17.7762 22.9434C17.8635 22.4055 17.7926 21.8539 17.5722 21.3555C17.3518 20.8572 16.9913 20.4336 16.5347 20.1363C16.0781 19.8389 15.5449 19.6807 15 19.6807C14.4551 19.6807 13.9219 19.8389 13.4653 20.1363C13.0087 20.4336 12.6482 20.8572 12.4278 21.3555C12.2074 21.8539 12.1365 22.4055 12.2238 22.9434C12.311 23.4813 12.5526 23.9822 12.9192 24.3854C12.4417 24.4137 11.9763 24.5469 11.5561 24.7754C11.3527 24.1499 10.9665 23.5998 10.4474 23.196C9.92825 22.7922 9.30002 22.5532 8.64375 22.5099C9.01017 22.1067 9.25158 21.6057 9.33865 21.0679C9.42571 20.53 9.35468 19.9785 9.13418 19.4802C8.91368 18.982 8.55321 18.5585 8.09658 18.2613C7.63995 17.9641 7.10682 17.8059 6.56197 17.8059C6.01712 17.806 5.48403 17.9643 5.02746 18.2616C4.5709 18.559 4.21052 18.9825 3.99014 19.4808C3.76975 19.9791 3.69884 20.5307 3.78603 21.0685C3.87321 21.6063 4.11474 22.1072 4.48125 22.5104C3.64914 22.5631 2.86828 22.9305 2.29718 23.538C1.72609 24.1455 1.40756 24.9475 1.40625 25.7813V26.7188C1.40625 26.8431 1.45564 26.9624 1.54354 27.0503C1.63145 27.1382 1.75068 27.1876 1.875 27.1876C1.99932 27.1876 2.11855 27.1382 2.20646 27.0503C2.29436 26.9624 2.34375 26.8431 2.34375 26.7188V25.7813C2.34449 25.1599 2.59166 24.5642 3.03104 24.1249C3.47042 23.6855 4.06613 23.4383 4.6875 23.4376H8.4375C8.99288 23.4399 9.52935 23.6395 9.95113 24.0008C10.3729 24.3621 10.6525 24.8616 10.74 25.4101C10.1648 26.0165 9.84404 26.8205 9.84375 27.6563V28.5938C9.84375 28.7181 9.89314 28.8374 9.98104 28.9253C10.069 29.0132 10.1882 29.0626 10.3125 29.0626C10.4368 29.0626 10.556 29.0132 10.644 28.9253C10.7319 28.8374 10.7812 28.7181 10.7812 28.5938V27.6563C10.782 27.0349 11.0292 26.4392 11.4685 25.9999C11.9079 25.5605 12.5036 25.3133 13.125 25.3126H16.875C17.4964 25.3133 18.0921 25.5605 18.5315 25.9999C18.9708 26.4392 19.218 27.0349 19.2188 27.6563V28.5938C19.2188 28.7181 19.2681 28.8374 19.356 28.9253C19.444 29.0132 19.5632 29.0626 19.6875 29.0626C19.8118 29.0626 19.931 29.0132 20.019 28.9253C20.1069 28.8374 20.1562 28.7181 20.1562 28.5938V27.6563C20.156 26.8205 19.8352 26.0165 19.26 25.4101C19.3475 24.8616 19.6271 24.3621 20.0489 24.0008C20.4706 23.6395 21.0071 23.4399 21.5625 23.4376H25.3125C25.9339 23.4383 26.5296 23.6855 26.969 24.1249C27.4083 24.5642 27.6555 25.1599 27.6562 25.7813V26.7188C27.6562 26.8431 27.7056 26.9624 27.7935 27.0503C27.8815 27.1382 28.0007 27.1876 28.125 27.1876C28.2493 27.1876 28.3685 27.1382 28.4565 27.0503C28.5444 26.9624 28.5938 26.8431 28.5938 26.7188V25.7813C28.5924 24.9475 28.2739 24.1455 27.7028 23.538C27.1317 22.9305 26.3504 22.5631 25.5183 22.5104ZM6.5625 18.7501C6.93334 18.7501 7.29585 18.86 7.60419 19.0661C7.91254 19.2721 8.15286 19.5649 8.29477 19.9075C8.43669 20.2501 8.47382 20.6271 8.40147 20.9909C8.32913 21.3546 8.15055 21.6887 7.88832 21.9509C7.6261 22.2131 7.29201 22.3917 6.92829 22.464C6.56458 22.5364 6.18758 22.4992 5.84497 22.3573C5.50236 22.2154 5.20952 21.9751 5.00349 21.6668C4.79747 21.3584 4.6875 20.9959 4.6875 20.6251C4.688 20.1279 4.8857 19.6513 5.23722 19.2998C5.58875 18.9483 6.06537 18.7506 6.5625 18.7501ZM15 20.6251C15.3708 20.6251 15.7334 20.735 16.0417 20.9411C16.35 21.1471 16.5904 21.4399 16.7323 21.7825C16.8742 22.1251 16.9113 22.5021 16.839 22.8659C16.7666 23.2296 16.588 23.5637 16.3258 23.8259C16.0636 24.0881 15.7295 24.2667 15.3658 24.339C15.0021 24.4114 14.6251 24.3742 14.2825 24.2323C13.9399 24.0904 13.647 23.8501 13.441 23.5418C13.235 23.2334 13.125 22.8709 13.125 22.5001C13.1255 22.0029 13.3232 21.5263 13.6747 21.1748C14.0262 20.8233 14.5029 20.6256 15 20.6251ZM23.4375 18.7501C23.8083 18.7501 24.1709 18.86 24.4792 19.0661C24.7875 19.2721 25.0279 19.5649 25.1698 19.9075C25.3117 20.2501 25.3488 20.6271 25.2765 20.9909C25.2041 21.3546 25.0255 21.6887 24.7633 21.9509C24.5011 22.2131 24.167 22.3917 23.8033 22.464C23.4396 22.5364 23.0626 22.4992 22.72 22.3573C22.3774 22.2154 22.0845 21.9751 21.8785 21.6668C21.6725 21.3584 21.5625 20.9959 21.5625 20.6251C21.563 20.1279 21.7607 19.6513 22.1122 19.2998C22.4637 18.9483 22.9404 18.7506 23.4375 18.7501Z" fill="#3692E6"/>
</svg>
