<svg width="60" height="60" viewBox="0 0 60 60" fill="none" xmlns="http://www.w3.org/2000/svg">
<g clip-path="url(#clip0_2122_4933)">
<path d="M7 10C8.6568 10 10 8.6568 10 7C10 5.3432 8.6568 4 7 4C5.3432 4 4 5.3432 4 7C4 8.6568 5.3432 10 7 10ZM7 6.00004C7.13132 6.00004 7.26135 6.0259 7.38267 6.07616C7.50399 6.12641 7.61422 6.20007 7.70708 6.29292C7.79993 6.38578 7.87359 6.49601 7.92384 6.61733C7.9741 6.73865 7.99996 6.86868 7.99996 7C7.99996 7.13132 7.9741 7.26135 7.92384 7.38267C7.87359 7.50399 7.79993 7.61422 7.70708 7.70708C7.61422 7.79993 7.50399 7.87359 7.38267 7.92384C7.26135 7.9741 7.13132 7.99996 7 7.99996C6.73479 7.99996 6.48045 7.89461 6.29292 7.70708C6.10539 7.51955 6.00004 7.26521 6.00004 7C6.00004 6.73479 6.10539 6.48045 6.29292 6.29292C6.48045 6.10539 6.73479 6.00004 7 6.00004ZM15 10C16.657 10 18 8.6568 18 7C18 5.3432 16.6568 4 15 4C13.3432 4 12 5.3432 12 7C12 8.6568 13.3432 10 15 10ZM15 6.00004C15.1314 6.00004 15.2614 6.0259 15.3827 6.07616C15.504 6.12641 15.6143 6.20007 15.7071 6.29292C15.8 6.38578 15.8736 6.49601 15.9239 6.61733C15.9741 6.73865 16 6.86868 16 7C16 7.13132 15.9741 7.26135 15.9239 7.38267C15.8736 7.50399 15.8 7.61422 15.7071 7.70708C15.6143 7.79993 15.504 7.87359 15.3827 7.92384C15.2614 7.9741 15.1314 7.99996 15 7.99996C14.7348 7.99996 14.4805 7.89461 14.293 7.70708C14.1054 7.51955 14.0001 7.26521 14.0001 7C14.0001 6.73479 14.1054 6.48045 14.293 6.29292C14.4805 6.10539 14.7348 6.00004 15 6.00004ZM23.0001 10C24.6569 10 26.0001 8.6568 26.0001 7C26.0001 5.3432 24.6569 4 23.0001 4C21.3433 4 20.0001 5.3432 20.0001 7C20.0001 8.6568 21.3432 10 23.0001 10ZM23.0001 6.00004C23.1314 6.00004 23.2614 6.0259 23.3827 6.07616C23.5041 6.12641 23.6143 6.20007 23.7072 6.29292C23.8 6.38578 23.8737 6.49601 23.9239 6.61733C23.9742 6.73865 24 6.86868 24 7C24 7.13132 23.9742 7.26135 23.9239 7.38267C23.8737 7.50399 23.8 7.61422 23.7072 7.70708C23.6143 7.79993 23.5041 7.87359 23.3827 7.92384C23.2614 7.9741 23.1314 7.99996 23.0001 7.99996C22.7349 7.99996 22.4805 7.89461 22.293 7.70708C22.1055 7.51955 22.0001 7.26521 22.0001 7C22.0001 6.73479 22.1055 6.48045 22.293 6.29292C22.4805 6.10539 22.7349 6.00004 23.0001 6.00004ZM39 10H49C50.6568 10 52 8.6568 52 7C52 5.3432 50.6568 4 49 4H39C37.3432 4 36 5.3432 36 7C36 8.6568 37.3432 10 39 10ZM39 6.00004H49C49.2652 6.00004 49.5196 6.10539 49.7071 6.29292C49.8946 6.48045 50 6.73479 50 7C50 7.26521 49.8946 7.51955 49.7071 7.70708C49.5196 7.89461 49.2652 7.99996 49 7.99996H39C38.7348 7.99996 38.4805 7.89461 38.293 7.70708C38.1054 7.51955 38.0001 7.26521 38.0001 7C38.0001 6.73479 38.1054 6.48045 38.293 6.29292C38.4805 6.10539 38.7348 6.00004 39 6.00004Z" fill="#2E2E2E"/>
<path d="M56 23V6C55.9968 2.6877 53.3123 0.00328125 50 0H6C2.6877 0.00328125 0.00328125 2.6877 0 6V50C0.00328125 53.3123 2.6877 55.9968 6 56H9.99996C9.99996 58.2091 11.7908 60 13.9999 60H55.9999C58.2091 60 60 58.2091 60 56V27C60 24.7909 58.2091 23 56 23ZM58 27V33H12V27C12 25.8954 12.8954 25 14 25H56C57.1045 25 58 25.8954 58 27ZM6 2.00004H50C52.2091 2.00004 54 3.7909 54 6V12H2.00004V6C2.00004 3.7909 3.7909 2.00004 6 2.00004ZM6 54C3.7909 54 2.00004 52.2091 2.00004 50V14H54V23H14C11.7909 23 10.0001 24.7909 10.0001 27V54H6ZM56 58H14C12.8954 58 12 57.1045 12 55.9999V34.9999H58V55.9999C58 57.1045 57.1045 58 56 58Z" fill="#2E2E2E"/>
<path fill-rule="evenodd" clip-rule="evenodd" d="M55.7069 27.293C55.5193 27.1055 55.265 27.0002 54.9999 27.0002C54.7347 27.0002 54.4804 27.1055 54.2929 27.293L53.9999 27.586L53.7069 27.293C53.5183 27.1108 53.2657 27.01 53.0036 27.0123C52.7414 27.0146 52.4905 27.1198 52.3051 27.3052C52.1197 27.4906 52.0146 27.7414 52.0123 28.0036C52.01 28.2658 52.1108 28.5184 52.293 28.707L52.5859 28.9999L52.293 29.2929C52.1967 29.385 52.1199 29.4954 52.0669 29.6176C52.0139 29.7397 51.9859 29.8713 51.9844 30.0044C51.983 30.1376 52.0081 30.2697 52.0584 30.393C52.1087 30.5164 52.1831 30.6284 52.2773 30.7226C52.3715 30.8167 52.4835 30.8911 52.6068 30.9414C52.7301 30.9917 52.8622 31.0169 52.9954 31.0154C53.1286 31.014 53.2601 30.9859 53.3823 30.9329C53.5045 30.88 53.6149 30.8031 53.7069 30.7069L53.9999 30.4139L54.2929 30.7069C54.4815 30.8891 54.7341 30.9899 54.9963 30.9876C55.2585 30.9853 55.5093 30.8801 55.6947 30.6947C55.8801 30.5093 55.9853 30.2585 55.9875 29.9963C55.9898 29.7341 55.889 29.4815 55.7069 29.2929L55.4139 28.9999L55.7069 28.707C55.8944 28.5195 55.9997 28.2652 55.9997 28C55.9997 27.7348 55.8944 27.4805 55.7069 27.293Z" fill="#2E2E2E"/>
<path d="M39.9999 47H30C27.7909 47 26 48.7909 26 51C26 53.2091 27.7909 54.9999 30 54.9999H39.9999C42.209 54.9999 43.9999 53.2091 43.9999 51C44 48.7909 42.2091 47 39.9999 47ZM39.9999 53H30C28.8954 53 27.9999 52.1046 27.9999 51C27.9999 49.8954 28.8954 48.9999 30 48.9999H39.9999C41.1045 48.9999 42 49.8954 42 51C42 52.1046 41.1045 53 39.9999 53Z" fill="#2E2E2E"/>
<path fill-rule="evenodd" clip-rule="evenodd" d="M32.9999 39.9999H36.9999C37.2651 39.9999 37.5194 39.8946 37.707 39.707C37.8945 39.5195 37.9998 39.2652 37.9998 39C37.9998 38.7348 37.8945 38.4804 37.707 38.2929C37.5194 38.1054 37.2651 38 36.9999 38H32.9999C32.4476 38 32 38.4477 32 39C32 39.5523 32.4476 39.9999 32.9999 39.9999ZM29 44H41C41.2652 44 41.5195 43.8946 41.707 43.7071C41.8946 43.5196 41.9999 43.2652 41.9999 43C41.9999 42.7348 41.8946 42.4805 41.707 42.293C41.5195 42.1054 41.2652 42.0001 41 42.0001H29C28.4477 42.0001 28 42.4477 28 43C28 43.5523 28.4477 44 29 44Z" fill="#2E2E2E"/>
</g>
<defs>
<clipPath id="clip0_2122_4933">
<rect width="60" height="60" fill="white"/>
</clipPath>
</defs>
</svg>
