<svg width="60" height="60" viewBox="0 0 60 60" fill="none" xmlns="http://www.w3.org/2000/svg">
<path d="M53.4375 32.3719V13.9875C56.6128 13.53 59.0625 10.7991 59.0625 7.5C59.0625 3.88219 56.1187 0.9375 52.5 0.9375C48.8813 0.9375 45.9375 3.88219 45.9375 7.5H0.9375V45H29.1103C29.5978 52.8337 36.1087 59.0625 44.0625 59.0625C52.3331 59.0625 59.0625 52.3331 59.0625 44.0625C59.0625 39.3384 56.8622 35.1234 53.4375 32.3719ZM52.5 2.8125C55.0847 2.8125 57.1875 4.91531 57.1875 7.5C57.1875 10.0847 55.0847 12.1875 52.5 12.1875C49.9153 12.1875 47.8125 10.0847 47.8125 7.5C47.8125 4.91531 49.9153 2.8125 52.5 2.8125ZM2.8125 9.375H46.2141C46.4368 10.1135 46.7882 10.807 47.2519 11.4234L41.5181 17.1572C41.1506 16.9809 40.7456 16.875 40.3125 16.875C39.8794 16.875 39.4744 16.9809 39.1078 17.1572L37.2188 15.2681C37.3941 14.9006 37.5 14.4956 37.5 14.0625C37.5 12.5119 36.2381 11.25 34.6875 11.25C33.1369 11.25 31.875 12.5119 31.875 14.0625C31.875 14.4956 31.9809 14.9006 32.1572 15.2672L27.4556 19.9687C27.0799 19.7858 26.6679 19.6897 26.25 19.6875C24.6994 19.6875 23.4375 20.9494 23.4375 22.5C23.4375 24.0506 24.6994 25.3125 26.25 25.3125C27.8006 25.3125 29.0625 24.0506 29.0625 22.5C29.0606 22.0823 28.9641 21.6704 28.7803 21.2953L33.4819 16.5938C33.8494 16.7691 34.2544 16.875 34.6875 16.875C35.1206 16.875 35.5256 16.7691 35.8922 16.5928L37.7812 18.4819C37.6059 18.8494 37.5 19.2544 37.5 19.6875C37.5 21.2381 38.7619 22.5 40.3125 22.5C41.8631 22.5 43.125 21.2381 43.125 19.6875C43.1231 19.2698 43.0266 18.8579 42.8428 18.4828L48.5775 12.7491C49.4528 13.4061 50.4793 13.8323 51.5625 13.9884V31.0931C49.2864 29.764 46.6982 29.0633 44.0625 29.0625C39.5812 29.0625 35.5631 31.0481 32.8125 34.1747V30H27.1875V41.25H29.3362C29.2217 41.8696 29.1463 42.4959 29.1103 43.125H2.8125V9.375ZM40.3125 18.75C40.4982 18.7498 40.6798 18.8047 40.8342 18.9078C40.9887 19.0108 41.1091 19.1574 41.1803 19.3289C41.2514 19.5004 41.2701 19.6892 41.2339 19.8713C41.1977 20.0534 41.1083 20.2207 40.977 20.352C40.8457 20.4833 40.6784 20.5727 40.4963 20.6089C40.3142 20.6451 40.1254 20.6264 39.9539 20.5553C39.7824 20.4841 39.6358 20.3637 39.5328 20.2092C39.4297 20.0548 39.3748 19.8732 39.375 19.6875C39.375 19.17 39.7959 18.75 40.3125 18.75ZM33.75 14.0625C33.7498 13.8768 33.8047 13.6952 33.9078 13.5408C34.0108 13.3863 34.1574 13.2659 34.3289 13.1947C34.5004 13.1236 34.6892 13.1049 34.8713 13.1411C35.0534 13.1773 35.2207 13.2667 35.352 13.398C35.4833 13.5293 35.5727 13.6966 35.6089 13.8787C35.6451 14.0608 35.6264 14.2496 35.5553 14.4211C35.4841 14.5926 35.3637 14.7392 35.2092 14.8422C35.0548 14.9453 34.8732 15.0002 34.6875 15C34.1709 15 33.75 14.58 33.75 14.0625ZM27.1875 22.5C27.1767 22.7414 27.0732 22.9693 26.8986 23.1363C26.7239 23.3033 26.4916 23.3965 26.25 23.3965C26.0084 23.3965 25.7761 23.3033 25.6014 23.1363C25.4268 22.9693 25.3233 22.7414 25.3125 22.5C25.3233 22.2586 25.4268 22.0307 25.6014 21.8637C25.7761 21.6967 26.0084 21.6035 26.25 21.6035C26.4916 21.6035 26.7239 21.6967 26.8986 21.8637C27.0732 22.0307 27.1767 22.2586 27.1875 22.5ZM44.0625 51.5625C39.9272 51.5625 36.5625 48.1978 36.5625 44.0625C36.5625 39.9272 39.9272 36.5625 44.0625 36.5625C48.1978 36.5625 51.5625 39.9272 51.5625 44.0625C51.5625 48.1978 48.1978 51.5625 44.0625 51.5625ZM30.9375 36.8166C30.4866 37.6326 30.1134 38.4892 29.8228 39.375H29.0625V31.875H30.9375V36.8166ZM43.125 30.9853V34.7353C38.3944 35.2078 34.6875 39.21 34.6875 44.0625C34.6875 45.4341 34.9912 46.7344 35.5228 47.91L32.2706 49.7878C31.3954 48.006 30.9394 46.0476 30.9375 44.0625C30.9375 37.1419 36.3253 31.4691 43.125 30.9853ZM44.0625 57.1875C39.5494 57.1875 35.5612 54.8972 33.1987 51.4172L36.4641 49.5319C38.1684 51.8925 40.935 53.4375 44.0625 53.4375C47.19 53.4375 49.9566 51.8925 51.6609 49.5319L54.9263 51.4172C52.5638 54.8972 48.5756 57.1875 44.0625 57.1875ZM55.8544 49.7878L52.6022 47.91C53.1516 46.7017 53.4364 45.3899 53.4375 44.0625C53.4375 39.21 49.7306 35.2069 45 34.7353V30.9853C51.7997 31.4691 57.1875 37.1419 57.1875 44.0625C57.1875 46.1166 56.7 48.0553 55.8544 49.7878Z" fill="#2D7ABF"/>
<path d="M44.0625 38.4375C40.9603 38.4375 38.4375 40.9603 38.4375 44.0625C38.4375 47.1647 40.9603 49.6875 44.0625 49.6875C47.1647 49.6875 49.6875 47.1647 49.6875 44.0625C49.6875 40.9603 47.1647 38.4375 44.0625 38.4375ZM44.0625 47.8125C41.9944 47.8125 40.3125 46.1306 40.3125 44.0625C40.3125 41.9944 41.9944 40.3125 44.0625 40.3125C46.1306 40.3125 47.8125 41.9944 47.8125 44.0625C47.8125 46.1306 46.1306 47.8125 44.0625 47.8125ZM4.6875 11.25H6.5625V13.125H4.6875V11.25ZM8.4375 11.25H21.5625V13.125H8.4375V11.25ZM4.6875 15H6.5625V16.875H4.6875V15ZM8.4375 15H21.5625V16.875H8.4375V15ZM4.6875 18.75H6.5625V20.625H4.6875V18.75ZM8.4375 18.75H21.5625V20.625H8.4375V18.75ZM4.6875 22.5H6.5625V24.375H4.6875V22.5ZM8.4375 22.5H21.5625V24.375H8.4375V22.5ZM4.6875 41.25H10.3125V31.875H4.6875V41.25ZM6.5625 33.75H8.4375V39.375H6.5625V33.75ZM12.1875 41.25H17.8125V33.75H12.1875V41.25ZM14.0625 35.625H15.9375V39.375H14.0625V35.625ZM19.6875 41.25H25.3125V26.25H19.6875V41.25ZM21.5625 28.125H23.4375V39.375H21.5625V28.125Z" fill="#2D7ABF"/>
</svg>
