<svg width="60" height="60" viewBox="0 0 60 60" fill="none" xmlns="http://www.w3.org/2000/svg">
<path d="M36.849 22.8516C39.5977 22.8516 41.8337 20.6157 41.8337 17.8679C41.8337 15.1201 39.5977 12.8832 36.849 12.8832C34.1002 12.8832 31.8652 15.1191 31.8652 17.8679C31.8652 20.6166 34.1012 22.8516 36.849 22.8516ZM36.849 14.7582C38.5637 14.7582 39.9587 16.1532 39.9587 17.8679C39.9587 19.5826 38.5637 20.9766 36.849 20.9766C35.1343 20.9766 33.7402 19.5816 33.7402 17.8679C33.7402 16.1541 35.1352 14.7582 36.849 14.7582Z" fill="#2E2E2E"/>
<path d="M45.5447 23.9774L37.591 25.1568L32.7825 21.9028C32.1417 21.475 31.3608 21.3104 30.6019 21.4434L18.2672 23.5228C17.8763 23.588 17.5022 23.7299 17.1664 23.9404C16.8306 24.1508 16.5398 24.4256 16.3106 24.749C16.0796 25.0719 15.9152 25.4376 15.8271 25.8247C15.7391 26.2118 15.7291 26.6127 15.7978 27.0037C16.0772 28.6284 17.6335 29.7374 19.2741 29.4731L26.3447 28.2843L24.8231 30.2962C24.1162 31.2306 23.739 32.373 23.7506 33.5446L21.9816 35.7562L13.5488 37.0574C13.1571 37.1149 12.7808 37.2501 12.442 37.455C12.1033 37.66 11.809 37.9306 11.5763 38.2509C11.3404 38.5693 11.1703 38.9315 11.076 39.3164C10.9816 39.7012 10.965 40.1011 11.0269 40.4924C11.2435 41.9512 12.5241 43.0518 14.0053 43.0518C14.1413 43.0518 14.3269 43.0518 14.4666 43.0134L24.0638 41.5434C24.8093 41.4297 25.4833 41.0357 25.9481 40.4418L28.5478 37.1924L30.975 38.9596L28.0182 45.5015C27.692 46.2321 27.6677 47.0619 27.9505 47.8103C28.2334 48.5587 28.8006 49.165 29.5285 49.4971C29.9157 49.6715 30.3338 49.7596 30.7725 49.7596C31.353 49.7593 31.9212 49.5921 32.4094 49.2779C32.8976 48.9638 33.2851 48.516 33.526 47.9878L37.4757 39.1996C37.7617 38.5689 37.8215 37.8589 37.6449 37.1892C37.4683 36.5196 37.0662 35.9313 36.5063 35.5237L33.0253 32.9887L34.9378 30.6459L35.1778 30.8062C35.806 31.2221 36.5643 31.3948 37.3107 31.2918L46.3144 29.9643C47.8275 29.7412 48.9872 28.4784 49.0107 27.0262C49.0188 26.5876 48.9312 26.1524 48.7541 25.7511C48.577 25.3497 48.3145 24.9918 47.985 24.7021C47.6549 24.4117 47.2656 24.1966 46.8441 24.0714C46.4226 23.9463 45.9789 23.9142 45.5438 23.9774H45.5447ZM46.0416 28.1099L37.0425 29.4365C36.7566 29.4765 36.466 29.4108 36.225 29.2518L35.2688 28.6143C35.0747 28.4854 34.8396 28.4331 34.6092 28.4678C34.3788 28.5024 34.1695 28.6215 34.0219 28.8018L30.945 32.5715C30.8649 32.6705 30.8057 32.7847 30.771 32.9072C30.7362 33.0297 30.7267 33.158 30.743 33.2843C30.7593 33.4106 30.8011 33.5323 30.8658 33.642C30.9305 33.7516 31.0168 33.8471 31.1194 33.9224L35.3972 37.0368C35.835 37.3593 35.985 37.9349 35.7628 38.4337L31.816 47.2153C31.561 47.7768 30.8091 48.0178 30.2991 47.789C30.0231 47.6623 29.8083 47.4318 29.7012 47.1476C29.5941 46.8635 29.6035 46.5485 29.7272 46.2712L32.9972 39.0374C33.0861 38.8409 33.1046 38.6198 33.0494 38.4112C32.9942 38.2027 32.8689 38.0196 32.6944 37.8928L28.9257 35.1487C28.7308 35.0064 28.4884 34.9449 28.2493 34.977C28.0101 35.0092 27.7926 35.1325 27.6422 35.3212L24.4706 39.2859C24.3056 39.5015 24.0535 39.6459 23.7694 39.6928L14.1066 41.1768C14.0906 41.1787 14.0747 41.1787 14.0588 41.1787C13.515 41.174 12.9647 40.784 12.8794 40.2093C12.8316 39.9103 12.9056 39.6093 13.0866 39.3618C13.2666 39.1162 13.5281 38.9568 13.8281 38.9128L22.6275 37.5553C22.8597 37.5197 23.07 37.3978 23.2163 37.214L25.4335 34.4418C25.5834 34.2546 25.6558 34.0171 25.636 33.7781C25.5651 32.9373 25.8079 32.1002 26.3175 31.4278L29.2613 27.5343C29.3748 27.3846 29.4407 27.2042 29.4504 27.0165C29.4601 26.8289 29.4132 26.6427 29.3158 26.482C29.2184 26.3213 29.0749 26.1936 28.9041 26.1155C28.7332 26.0373 28.5428 26.0123 28.3575 26.0437L18.9685 27.6224C18.669 27.6707 18.3625 27.5996 18.115 27.4243C17.8674 27.2489 17.6986 26.9835 17.6447 26.6849C17.6189 26.5377 17.6225 26.3868 17.6555 26.241C17.6885 26.0951 17.7502 25.9573 17.8369 25.8356C18.0131 25.5871 18.2785 25.4221 18.5803 25.3706L30.9272 23.2893C31.2028 23.2387 31.4982 23.3024 31.7428 23.4628L36.8419 26.9137C37.0369 27.0459 37.2732 27.1003 37.5047 27.0646L45.8175 25.8318C46.1522 25.784 46.4916 25.8843 46.7475 26.1093C47.0035 26.3343 47.1413 26.6493 47.1357 26.9943C47.1272 27.5296 46.6463 28.019 46.0416 28.1081V28.1099Z" fill="#2E2E2E"/>
<path d="M51.5325 1.875H8.4675C4.83281 1.875 1.875 4.83281 1.875 8.4675V51.5325C1.875 55.1672 4.83281 58.125 8.4675 58.125H51.5325C55.1672 58.125 58.125 55.1672 58.125 51.5325V8.4675C58.125 4.83281 55.1672 1.875 51.5325 1.875ZM56.25 51.5325C56.2488 52.7833 55.7513 53.9825 54.8669 54.8669C53.9825 55.7513 52.7833 56.2488 51.5325 56.25H8.4675C7.21672 56.2488 6.01753 55.7513 5.13309 54.8669C4.24866 53.9825 3.75124 52.7833 3.75 51.5325V8.4675C3.75124 7.21672 4.24866 6.01753 5.13309 5.13309C6.01753 4.24866 7.21672 3.75124 8.4675 3.75H51.5325C52.7833 3.75124 53.9825 4.24866 54.8669 5.13309C55.7513 6.01753 56.2488 7.21672 56.25 8.4675V51.5325Z" fill="#2E2E2E"/>
<path d="M49.4239 6.98059H10.5758C9.62263 6.98183 8.70886 7.36102 8.03488 8.035C7.3609 8.70899 6.98171 9.62275 6.98047 10.5759V49.424C6.98171 50.3772 7.3609 51.2909 8.03488 51.9649C8.70886 52.6389 9.62263 53.0181 10.5758 53.0193H49.4239C50.3771 53.0181 51.2908 52.6389 51.9648 51.9649C52.6388 51.2909 53.018 50.3772 53.0192 49.424V10.5759C53.018 9.62275 52.6388 8.70899 51.9648 8.035C51.2908 7.36102 50.3771 6.98183 49.4239 6.98059ZM51.1442 49.424C51.1437 49.8801 50.9623 50.3174 50.6398 50.6399C50.3173 50.9624 49.88 51.1438 49.4239 51.1443H10.5758C10.1197 51.1438 9.6824 50.9624 9.35988 50.6399C9.03737 50.3174 8.85596 49.8801 8.85547 49.424V10.5759C8.85547 9.62715 9.62703 8.85559 10.5758 8.85559H49.4239C50.3727 8.85559 51.1442 9.62715 51.1442 10.5759V49.424Z" fill="#2E2E2E"/>
</svg>
