<svg width="30" height="30" viewBox="0 0 30 30" fill="none" xmlns="http://www.w3.org/2000/svg">
<path d="M27.6562 24.5675H26.4577V8.77063C26.4577 8.6463 26.4083 8.52708 26.3204 8.43917C26.2325 8.35126 26.1132 8.30188 25.9889 8.30188H22.8628C22.7385 8.30188 22.6193 8.35126 22.5314 8.43917C22.4434 8.52708 22.3941 8.6463 22.3941 8.77063V24.5675H20.1736V12.6711C20.1736 12.5468 20.1242 12.4275 20.0363 12.3396C19.9484 12.2517 19.8292 12.2023 19.7048 12.2023H16.5797C16.4554 12.2023 16.3361 12.2517 16.2482 12.3396C16.1603 12.4275 16.1109 12.5468 16.1109 12.6711V24.568H13.8891V15.6013C13.8891 15.4769 13.8397 15.3577 13.7518 15.2698C13.6639 15.1819 13.5446 15.1325 13.4203 15.1325H10.2947C10.1704 15.1325 10.0511 15.1819 9.96323 15.2698C9.87532 15.3577 9.82594 15.4769 9.82594 15.6013V24.567H7.60547V18.7545C7.60547 18.6302 7.55608 18.511 7.46818 18.4231C7.38027 18.3352 7.26104 18.2858 7.13672 18.2858H4.01109C3.88677 18.2858 3.76755 18.3352 3.67964 18.4231C3.59173 18.511 3.54234 18.6302 3.54234 18.7545V24.567H2.34375C2.21943 24.567 2.1002 24.6164 2.01229 24.7043C1.92439 24.7922 1.875 24.9115 1.875 25.0358C1.875 25.1601 1.92439 25.2793 2.01229 25.3672C2.1002 25.4551 2.21943 25.5045 2.34375 25.5045C3.36422 25.5036 27.6562 25.5045 27.6562 25.5045C27.7806 25.5045 27.8998 25.4551 27.9877 25.3672C28.0756 25.2793 28.125 25.1601 28.125 25.0358C28.125 24.9115 28.0756 24.7922 27.9877 24.7043C27.8998 24.6164 27.7806 24.5675 27.6562 24.5675ZM4.47984 24.5675V19.2238H6.66844V24.5675H4.47984ZM10.7639 24.5675V16.0705H12.952V24.5675H10.7639ZM17.048 24.5675V13.1398H19.2361V24.568L17.048 24.5675ZM23.3316 24.5675V9.23938H25.5202V24.5675H23.3316ZM7.88203 13.3325C13.4719 12.8722 17.2533 9.05328 18.9895 6.81828L18.8653 7.77031C18.8499 7.89324 18.8837 8.01728 18.9594 8.11533C19.0352 8.21338 19.1466 8.27747 19.2695 8.29357C19.3923 8.30968 19.5165 8.2765 19.615 8.20129C19.7134 8.12607 19.7781 8.01494 19.7948 7.89219L20.1698 5.02437C20.1825 4.91296 20.1548 4.8007 20.0916 4.70803C20.0285 4.61537 19.9341 4.54848 19.8258 4.51953C19.7741 4.50771 19.7216 4.49988 19.6687 4.49609L16.785 4.72109C16.7223 4.724 16.6608 4.73948 16.6041 4.76661C16.5475 4.79374 16.4969 4.83198 16.4553 4.87904C16.4138 4.92611 16.3821 4.98104 16.3622 5.04059C16.3422 5.10014 16.3345 5.16308 16.3393 5.22569C16.3442 5.28829 16.3616 5.34928 16.3905 5.40503C16.4194 5.46078 16.4592 5.51016 16.5075 5.55023C16.5559 5.5903 16.6118 5.62025 16.6719 5.63831C16.7321 5.65636 16.7952 5.66214 16.8577 5.65531L18.7847 5.50531C17.4759 7.34844 13.6922 11.8836 7.84219 12.3969C7.72366 12.4097 7.61444 12.4671 7.53671 12.5575C7.45899 12.6479 7.41859 12.7645 7.42372 12.8836C7.42885 13.0027 7.47913 13.1154 7.56434 13.1988C7.64955 13.2821 7.76284 13.33 7.88203 13.3325Z" fill="#3692E6"/>
</svg>
