<svg width="34" height="34" viewBox="0 0 34 34" fill="none" xmlns="http://www.w3.org/2000/svg">
<path d="M3.71875 7.4375H30.2812C30.563 7.4375 30.8333 7.54944 31.0326 7.7487C31.2318 7.94796 31.3438 8.21821 31.3438 8.5V13.8125H2.65625V8.5C2.65625 8.21821 2.76819 7.94796 2.96745 7.7487C3.16671 7.54944 3.43696 7.4375 3.71875 7.4375Z" fill="#52575D"/>
<path d="M2.65625 13.8125H31.3438V20.1875H2.65625V13.8125Z" fill="#EF5361"/>
<path d="M2.65625 20.1875H31.3438V25.5C31.3438 25.7818 31.2318 26.052 31.0326 26.2513C30.8333 26.4506 30.563 26.5625 30.2812 26.5625H3.71875C3.43696 26.5625 3.16671 26.4506 2.96745 26.2513C2.76819 26.052 2.65625 25.7818 2.65625 25.5V20.1875Z" fill="#FEC502"/>
</svg>
