<svg width="34" height="34" viewBox="0 0 34 34" fill="none" xmlns="http://www.w3.org/2000/svg">
<g clip-path="url(#clip0_2122_5020)">
<path fill-rule="evenodd" clip-rule="evenodd" d="M0 23.3499V20.34H34V23.3502C33.9976 24.1721 33.6701 24.9597 33.0891 25.541C32.5081 26.1223 31.7207 26.4502 30.8988 26.4531H3.10117C2.27922 26.4502 1.49179 26.1223 0.910764 25.5409C0.329742 24.9595 0.00232779 24.1718 0 23.3499Z" fill="#6DA544"/>
<path fill-rule="evenodd" clip-rule="evenodd" d="M34 13.6601H0V10.6498C0.00241532 9.82794 0.329868 9.04037 0.91088 8.45905C1.49189 7.87773 2.27928 7.54985 3.10117 7.547H30.8988C31.7207 7.54985 32.5081 7.87773 33.0891 8.45905C33.6701 9.04037 33.9976 9.82794 34 10.6498V13.6601Z" fill="#D80027"/>
<path d="M0 13.66H34V20.3398H0V13.66Z" fill="#F0F0F0"/>
</g>
<defs>
<clipPath id="clip0_2122_5020">
<rect width="34" height="34" fill="white"/>
</clipPath>
</defs>
</svg>
