<svg width="24" height="24" viewBox="0 0 24 24" fill="none" xmlns="http://www.w3.org/2000/svg">
<path d="M4.69961 17.7002C3.69961 16.6002 3.09961 15.4002 3.09961 13.4002C3.09961 9.9002 5.59961 6.8002 9.09961 5.2002L9.99961 6.5002C6.69961 8.3002 5.99961 10.6002 5.79961 12.1002C6.29961 11.8002 6.99961 11.7002 7.69961 11.8002C9.49961 12.0002 10.8996 13.4002 10.8996 15.3002C10.8996 16.2002 10.4996 17.1002 9.89961 17.8002C9.19961 18.5002 8.39961 18.8002 7.39961 18.8002C6.29961 18.8002 5.29961 18.3002 4.69961 17.7002ZM14.6996 17.7002C13.6996 16.6002 13.0996 15.4002 13.0996 13.4002C13.0996 9.9002 15.5996 6.8002 19.0996 5.2002L19.9996 6.5002C16.6996 8.3002 15.9996 10.6002 15.7996 12.1002C16.2996 11.8002 16.9996 11.7002 17.6996 11.8002C19.4996 12.0002 20.8996 13.4002 20.8996 15.3002C20.8996 16.2002 20.4996 17.1002 19.8996 17.8002C19.2996 18.5002 18.3996 18.8002 17.3996 18.8002C16.2996 18.8002 15.2996 18.3002 14.6996 17.7002Z" fill="#3692E6"/>
</svg>
