<svg width="60" height="60" viewBox="0 0 60 60" fill="none" xmlns="http://www.w3.org/2000/svg">
<path d="M53.4369 41.25H51.5619V33.75C51.5619 33.2527 51.3644 32.7758 51.0127 32.4242C50.6611 32.0725 50.1842 31.875 49.6869 31.875H47.8119C47.3146 31.875 46.8377 32.0725 46.4861 32.4242C46.1345 32.7758 45.9369 33.2527 45.9369 33.75V41.25H44.9994V28.125C44.9994 27.6277 44.8019 27.1508 44.4502 26.7992C44.0986 26.4475 43.6217 26.25 43.1244 26.25H41.2494C40.7521 26.25 40.2752 26.4475 39.9236 26.7992C39.572 27.1508 39.3744 27.6277 39.3744 28.125V41.25H38.4369V30.9375C38.4369 30.4402 38.2394 29.9633 37.8877 29.6117C37.5361 29.26 37.0592 29.0625 36.5619 29.0625H34.6869C34.1896 29.0625 33.7127 29.26 33.3611 29.6117C33.0095 29.9633 32.8119 30.4402 32.8119 30.9375V41.25C32.5634 41.2498 32.325 41.1509 32.1493 40.9751C31.9735 40.7994 31.8747 40.5611 31.8744 40.3125V25.3125C31.8744 25.0639 31.7756 24.8254 31.5998 24.6496C31.424 24.4738 31.1856 24.375 30.9369 24.375C30.6883 24.375 30.4498 24.4738 30.274 24.6496C30.0982 24.8254 29.9994 25.0639 29.9994 25.3125V40.3125C30.0002 41.0582 30.2967 41.7731 30.824 42.3004C31.3513 42.8277 32.0662 43.1243 32.8119 43.125H53.4369C53.6856 43.125 53.924 43.0262 54.0998 42.8504C54.2756 42.6746 54.3744 42.4361 54.3744 42.1875C54.3744 41.9389 54.2756 41.7004 54.0998 41.5246C53.924 41.3488 53.6856 41.25 53.4369 41.25ZM34.6869 41.25L34.686 30.9375H36.5619V41.25H34.6869ZM41.2494 41.25L41.2485 28.125H43.1244V41.25H41.2494ZM47.8119 41.25L47.811 33.75H49.6869V41.25H47.8119ZM43.1244 13.125C43.1244 12.8764 43.2232 12.6379 43.399 12.4621C43.5748 12.2863 43.8133 12.1875 44.0619 12.1875H52.4994C52.7481 12.1875 52.9865 12.2863 53.1623 12.4621C53.3381 12.6379 53.4369 12.8764 53.4369 13.125C53.4369 13.3736 53.3381 13.6121 53.1623 13.7879C52.9865 13.9637 52.7481 14.0625 52.4994 14.0625H44.0619C43.8133 14.0625 43.5748 13.9637 43.399 13.7879C43.2232 13.6121 43.1244 13.3736 43.1244 13.125ZM40.3119 13.125C40.3119 12.9396 40.3669 12.7583 40.4699 12.6042C40.5729 12.45 40.7193 12.3298 40.8907 12.2589C41.062 12.1879 41.2505 12.1693 41.4323 12.2055C41.6142 12.2417 41.7812 12.331 41.9123 12.4621C42.0434 12.5932 42.1327 12.7602 42.1689 12.9421C42.2051 13.124 42.1865 13.3125 42.1156 13.4838C42.0446 13.6551 41.9244 13.8015 41.7703 13.9045C41.6161 14.0075 41.4348 14.0625 41.2494 14.0625C41.0008 14.0625 40.7623 13.9637 40.5865 13.7879C40.4107 13.6121 40.3119 13.3736 40.3119 13.125ZM43.1244 16.875C43.1244 16.6264 43.2232 16.3879 43.399 16.2121C43.5748 16.0363 43.8133 15.9375 44.0619 15.9375H52.4994C52.7481 15.9375 52.9865 16.0363 53.1623 16.2121C53.3381 16.3879 53.4369 16.6264 53.4369 16.875C53.4369 17.1236 53.3381 17.3621 53.1623 17.5379C52.9865 17.7137 52.7481 17.8125 52.4994 17.8125H44.0619C43.8133 17.8125 43.5748 17.7137 43.399 17.5379C43.2232 17.3621 43.1244 17.1236 43.1244 16.875ZM43.1244 20.625C43.1244 20.3764 43.2232 20.1379 43.399 19.9621C43.5748 19.7863 43.8133 19.6875 44.0619 19.6875H52.4994C52.7481 19.6875 52.9865 19.7863 53.1623 19.9621C53.3381 20.1379 53.4369 20.3764 53.4369 20.625C53.4369 20.8736 53.3381 21.1121 53.1623 21.2879C52.9865 21.4637 52.7481 21.5625 52.4994 21.5625H44.0619C43.8133 21.5625 43.5748 21.4637 43.399 21.2879C43.2232 21.1121 43.1244 20.8736 43.1244 20.625ZM40.3119 16.875C40.3119 16.6896 40.3669 16.5083 40.4699 16.3542C40.5729 16.2 40.7193 16.0798 40.8907 16.0089C41.062 15.9379 41.2505 15.9193 41.4323 15.9555C41.6142 15.9917 41.7812 16.081 41.9123 16.2121C42.0434 16.3432 42.1327 16.5102 42.1689 16.6921C42.2051 16.874 42.1865 17.0625 42.1156 17.2338C42.0446 17.4051 41.9244 17.5515 41.7703 17.6545C41.6161 17.7575 41.4348 17.8125 41.2494 17.8125C41.0008 17.8125 40.7623 17.7137 40.5865 17.5379C40.4107 17.3621 40.3119 17.1236 40.3119 16.875ZM40.3119 20.625C40.3119 20.4396 40.3669 20.2583 40.4699 20.1042C40.5729 19.95 40.7193 19.8298 40.8907 19.7589C41.062 19.6879 41.2505 19.6693 41.4323 19.7055C41.6142 19.7417 41.7812 19.831 41.9123 19.9621C42.0434 20.0932 42.1327 20.2602 42.1689 20.4421C42.2051 20.624 42.1865 20.8125 42.1156 20.9838C42.0446 21.1551 41.9244 21.3015 41.7703 21.4045C41.6161 21.5075 41.4348 21.5625 41.2494 21.5625C41.0008 21.5625 40.7623 21.4637 40.5865 21.2879C40.4107 21.1121 40.3119 20.8736 40.3119 20.625ZM55.3119 6.5625H8.43692C7.69123 6.56324 6.97629 6.8598 6.449 7.38708C5.92172 7.91437 5.62516 8.62931 5.62442 9.375V21.6094C4.84356 21.7176 4.12822 22.1047 3.61048 22.6992C3.09273 23.2937 2.80753 24.0554 2.80753 24.8438C2.80753 25.6321 3.09273 26.3938 3.61048 26.9883C4.12822 27.5828 4.84356 27.9699 5.62442 28.0781V32.475C4.35015 33.6985 3.35732 35.1845 2.71483 36.83C2.07233 38.4756 1.79556 40.2412 1.9037 42.0044C2.01184 43.7676 2.50232 45.4862 3.34109 47.0409C4.17987 48.5956 5.34685 49.9492 6.76109 51.0077C8.17532 52.0663 9.80294 52.8044 11.531 53.171C13.2591 53.5376 15.0462 53.5239 16.7684 53.1307C18.4906 52.7375 20.1067 51.9743 21.5044 50.8941C22.9022 49.8138 24.0481 48.4424 24.8629 46.875H55.3119C56.0576 46.8743 56.7725 46.5777 57.2998 46.0504C57.8271 45.5231 58.1237 44.8082 58.1244 44.0625V9.375C58.1237 8.62931 57.8271 7.91437 57.2998 7.38708C56.7725 6.8598 56.0576 6.56324 55.3119 6.5625ZM4.68692 24.8438C4.68692 24.5656 4.76939 24.2937 4.92392 24.0625C5.07844 23.8312 5.29806 23.651 5.55502 23.5445C5.81198 23.4381 6.09473 23.4103 6.36752 23.4645C6.6403 23.5188 6.89087 23.6527 7.08754 23.8494C7.28421 24.046 7.41814 24.2966 7.4724 24.5694C7.52666 24.8422 7.49881 25.1249 7.39238 25.3819C7.28594 25.6389 7.1057 25.8585 6.87444 26.013C6.64318 26.1675 6.3713 26.25 6.09317 26.25C5.72036 26.2495 5.36296 26.1012 5.09935 25.8376C4.83573 25.574 4.68742 25.2166 4.68692 24.8438ZM13.1244 30.9844V40.6894L4.57629 45.2925C3.93809 43.7977 3.66255 42.1731 3.77219 40.5515C3.88182 38.9298 4.37352 37.3571 5.20711 35.9618C6.04071 34.5666 7.19255 33.3882 8.56856 32.5232C9.94456 31.6581 11.5057 31.1308 13.1244 30.9844ZM14.9994 30.9844C17.3985 31.2063 19.6443 32.2604 21.3479 33.964C23.0516 35.6676 24.1056 37.9135 24.3275 40.3125H14.9994V30.9844ZM14.0619 51.5625C12.3596 51.5614 10.6841 51.1388 9.1849 50.3323C7.68576 49.5258 6.40969 48.3605 5.47067 46.9406L14.2991 42.1875H24.3266C24.0905 44.7478 22.9074 47.1279 21.0089 48.8619C19.1104 50.5958 16.6331 51.5589 14.0619 51.5625ZM56.2494 44.0625C56.2492 44.3111 56.1503 44.5494 55.9746 44.7251C55.7988 44.9009 55.5605 44.9998 55.3119 45H25.6532C26.4312 42.6118 26.4512 40.0414 25.7103 37.6414C24.9695 35.2414 23.5041 33.1295 21.5154 31.5954C19.5266 30.0613 17.1118 29.1802 14.6024 29.0729C12.0929 28.9657 9.6118 29.6377 7.49942 30.9966V27.7959C8.05888 27.5312 8.5319 27.1134 8.86373 26.5909C9.19556 26.0685 9.37263 25.4627 9.37442 24.8438C9.37167 24.3523 9.25723 23.8679 9.03973 23.4272L13.7835 19.2103C14.2227 19.4745 14.7177 19.6323 15.2289 19.6711C15.74 19.7098 16.2532 19.6284 16.7272 19.4334L20.8588 22.6959C20.6593 23.1963 20.5862 23.7381 20.6458 24.2735C20.7055 24.8089 20.8961 25.3213 21.2008 25.7655C21.5056 26.2097 21.915 26.572 22.393 26.8203C22.8711 27.0687 23.4029 27.1955 23.9415 27.1895C24.4802 27.1835 25.009 27.0449 25.4814 26.786C25.9538 26.527 26.3551 26.1557 26.6498 25.7048C26.9446 25.254 27.1238 24.7374 27.1715 24.2009C27.2192 23.6643 27.134 23.1243 26.9235 22.6284L32.3422 18.1519C32.9875 18.5997 33.7723 18.8005 34.5534 18.7174C35.3344 18.6343 36.0595 18.273 36.596 17.6994C37.1326 17.1258 37.4449 16.3783 37.4758 15.5934C37.5067 14.8086 37.2541 14.0388 36.7643 13.4249C36.2744 12.8109 35.58 12.3937 34.8079 12.2495C34.0358 12.1053 33.2376 12.2437 32.5592 12.6395C31.8807 13.0353 31.3673 13.662 31.1129 14.4051C30.8584 15.1481 30.8798 15.958 31.1732 16.6866L25.731 21.1828C25.1807 20.8161 24.5325 20.6241 23.8712 20.6319C23.2099 20.6398 22.5665 20.8471 22.025 21.2269L18.2075 18.2128C18.5259 17.7346 18.7131 17.1812 18.7505 16.608C18.7878 16.0347 18.674 15.4617 18.4203 14.9463C18.1666 14.4309 17.782 13.9911 17.305 13.671C16.828 13.3509 16.2753 13.1616 15.7022 13.1222C15.1291 13.0828 14.5557 13.1946 14.0393 13.4464C13.523 13.6982 13.0818 14.0812 12.76 14.557C12.4381 15.0328 12.2469 15.5849 12.2054 16.1578C12.1639 16.7308 12.2736 17.3046 12.5235 17.8219L7.77598 22.0416C7.68626 21.9871 7.59397 21.9371 7.49942 21.8916V9.375C7.49967 9.12644 7.59852 8.88812 7.77428 8.71236C7.95004 8.5366 8.18836 8.43775 8.43692 8.4375H55.3119C55.5605 8.43775 55.7988 8.5366 55.9746 8.71236C56.1503 8.88812 56.2492 9.12644 56.2494 9.375V44.0625ZM16.4619 17.4C16.2653 17.5968 16.0148 17.7309 15.7419 17.7854C15.4691 17.8398 15.1862 17.812 14.9292 17.7056C14.6721 17.5992 14.4524 17.419 14.2978 17.1877C14.1432 16.9564 14.0607 16.6845 14.0607 16.4062C14.0607 16.128 14.1432 15.8561 14.2978 15.6248C14.4524 15.3935 14.6721 15.2133 14.9292 15.1069C15.1862 15.0005 15.4691 14.9727 15.7419 15.0271C16.0148 15.0816 16.2653 15.2157 16.4619 15.4125C16.7248 15.6764 16.8724 16.0337 16.8724 16.4062C16.8724 16.7788 16.7248 17.1361 16.4619 17.4ZM24.8994 24.9C24.7028 25.0968 24.4523 25.2309 24.1794 25.2854C23.9066 25.3398 23.6237 25.312 23.3667 25.2056C23.1096 25.0992 22.8899 24.919 22.7353 24.6877C22.5807 24.4564 22.4982 24.1845 22.4982 23.9062C22.4982 23.628 22.5807 23.3561 22.7353 23.1248C22.8899 22.8935 23.1096 22.7133 23.3667 22.6069C23.6237 22.5005 23.9066 22.4727 24.1794 22.5271C24.4523 22.5816 24.7028 22.7157 24.8994 22.9125C25.1623 23.1764 25.3099 23.5337 25.3099 23.9062C25.3099 24.2788 25.1623 24.6361 24.8994 24.9ZM33.2244 14.475C33.421 14.2782 33.6716 14.1441 33.9444 14.0896C34.2172 14.0352 34.5001 14.063 34.7571 14.1694C35.0142 14.2758 35.2339 14.456 35.3885 14.6873C35.5431 14.9186 35.6257 15.1905 35.6257 15.4688C35.6257 15.747 35.5431 16.0189 35.3885 16.2502C35.2339 16.4815 35.0142 16.6617 34.7571 16.7681C34.5001 16.8745 34.2172 16.9023 33.9444 16.8479C33.6716 16.7934 33.421 16.6593 33.2244 16.4625C32.9615 16.1986 32.8139 15.8413 32.8139 15.4688C32.8139 15.0962 32.9615 14.7389 33.2244 14.475Z" fill="#1C4AB0"/>
</svg>
