<svg width="40" height="40" viewBox="0 0 40 40" fill="none" xmlns="http://www.w3.org/2000/svg">
<path d="M16.1359 16.1258C13.6047 18.657 13.6047 22.7758 16.1359 25.307C17.4016 26.5727 19.0641 27.2055 20.7266 27.2055C22.3891 27.2055 24.0516 26.5727 25.3172 25.307C27.8484 22.7758 27.8484 18.657 25.3172 16.1258C22.7859 13.5945 18.6672 13.5945 16.1359 16.1258ZM24.6539 24.6438C23.5711 25.7266 22.1492 26.268 20.7266 26.268C19.3047 26.268 17.8812 25.7266 16.7992 24.6438C14.6336 22.4781 14.6336 18.9539 16.7992 16.7883C17.882 15.7055 19.3039 15.1641 20.7266 15.1641C22.1484 15.1641 23.5711 15.7055 24.6539 16.7883C26.8203 18.9539 26.8203 22.4781 24.6539 24.6438ZM36.0687 9.77266C34.5469 9.77266 33.3094 11.0102 33.3094 12.532C33.3094 12.9203 33.3906 13.2898 33.5359 13.6258L28.8328 16.6953C28.7664 16.5609 28.6969 16.4273 28.6234 16.2969L29.7969 15.0477C29.9116 14.9265 29.9744 14.7652 29.9718 14.5983C29.9692 14.4314 29.9013 14.2722 29.7828 14.1547L27.2883 11.6602C27.1707 11.5418 27.0115 11.4741 26.8447 11.4715C26.6778 11.4689 26.5166 11.5315 26.3953 11.6461L25.1469 12.8195C24.5266 12.4719 23.868 12.1992 23.1828 12.007L23.1312 10.2945C23.1269 10.1276 23.0574 9.96895 22.9375 9.85269C22.8176 9.73644 22.6569 9.6718 22.4898 9.67266H18.9625C18.6133 9.67266 18.332 9.94609 18.3211 10.2945L18.2695 12.007C17.5836 12.2 16.9242 12.4727 16.3039 12.8211L15.057 11.6469C14.9359 11.5318 14.7745 11.4688 14.6074 11.4713C14.4404 11.4737 14.281 11.5416 14.1633 11.6602L13.2477 12.5758L8.94531 8.27344C9.3142 7.79333 9.51389 7.20468 9.51328 6.59922C9.51328 5.07734 8.27578 3.83984 6.75391 3.83984C5.23203 3.83984 3.99531 5.07656 3.99531 6.59844C3.99531 8.12031 5.23281 9.35781 6.75469 9.35781C7.30859 9.35781 7.825 9.19297 8.25781 8.91094L12.5859 13.2391L11.6703 14.1547C11.5516 14.2721 11.4837 14.4315 11.4812 14.5985C11.4787 14.7654 11.5418 14.9267 11.657 15.0477L12.8313 16.2945C12.4836 16.9148 12.2102 17.5742 12.0172 18.2602L10.3055 18.3117C10.1384 18.3159 9.97959 18.3854 9.86318 18.5053C9.74676 18.6252 9.682 18.786 9.68281 18.9531V20.2477H6.65C6.42656 18.9484 5.29297 17.957 3.93125 17.957C2.40938 17.957 1.17188 19.1945 1.17188 20.7164C1.17188 22.2383 2.40938 23.4758 3.93125 23.4758C5.29297 23.4758 6.42656 22.4844 6.65 21.1852H9.68281V22.4805C9.68281 22.8297 9.95625 23.1109 10.3047 23.1219L12.0172 23.1734C12.2102 23.8594 12.4828 24.5188 12.8313 25.1391L11.657 26.3859C11.542 26.5069 11.4789 26.6682 11.4814 26.8351C11.4839 27.0021 11.5517 27.1614 11.6703 27.2789L14.1648 29.7734C14.2824 29.892 14.4417 29.9598 14.6086 29.9623C14.7755 29.9648 14.9368 29.9017 15.0578 29.7867L16.3047 28.6125C16.3773 28.6531 16.4508 28.693 16.5242 28.7313L14.4719 31.2531C13.9984 30.8719 13.3977 30.6422 12.7437 30.6422C11.2219 30.6422 9.98438 31.8797 9.98438 33.4016C9.98438 34.9234 11.2219 36.1609 12.7437 36.1609C14.2656 36.1609 15.5031 34.9234 15.5031 33.4016C15.5031 32.8766 15.3555 32.3852 15.1 31.9672L17.4063 29.1336C17.6883 29.2445 17.9766 29.343 18.2695 29.4258L18.3227 31.1391C18.327 31.3059 18.3965 31.4643 18.5163 31.5805C18.636 31.6968 18.7964 31.7615 18.9633 31.7609H22.4914C22.8398 31.7609 23.1219 31.4875 23.1328 31.1391L23.1859 29.4258C23.87 29.2336 24.5287 28.9608 25.1484 28.6133L26.3969 29.7867C26.518 29.9016 26.6793 29.9645 26.8462 29.9619C27.0132 29.9593 27.1724 29.8913 27.2898 29.7727L28.2055 28.857L30.5711 31.2227C30.2962 31.6604 30.1506 32.1668 30.1508 32.6836C30.1508 34.2055 31.3883 35.443 32.9102 35.443C34.432 35.443 35.6695 34.2055 35.6695 32.6836C35.6695 31.1617 34.432 29.9242 32.9102 29.9242C32.2633 29.9242 31.668 30.1484 31.1969 30.5227L28.868 28.1938L29.7836 27.2781C29.9022 27.1606 29.97 27.0013 29.9724 26.8344C29.9749 26.6674 29.9119 26.5062 29.7969 26.3852L28.6234 25.1367C28.9703 24.5172 29.243 23.8594 29.4359 23.1742L31.1492 23.1211C31.3161 23.1166 31.4747 23.047 31.5909 22.9272C31.7071 22.8073 31.7718 22.6467 31.7711 22.4797V18.9523C31.7711 18.6039 31.4977 18.3219 31.1492 18.3109L29.4359 18.2578C29.3703 18.0242 29.2945 17.7945 29.2109 17.568L34.05 14.4102C34.5539 14.9523 35.2727 15.2922 36.0695 15.2922C37.5914 15.2922 38.8289 14.0547 38.8289 12.5328C38.8289 11.0109 37.5906 9.77266 36.0687 9.77266ZM4.93281 6.59844C4.93281 5.59375 5.75 4.77656 6.75469 4.77656C7.75937 4.77656 8.57656 5.59375 8.57656 6.59844C8.57656 7.60312 7.75937 8.42031 6.75469 8.42031C5.75 8.42031 4.93281 7.60312 4.93281 6.59844ZM3.93125 22.5383C2.92656 22.5383 2.10938 21.7211 2.10938 20.7164C2.10938 19.7117 2.92656 18.8945 3.93125 18.8945C4.93594 18.8945 5.75312 19.7117 5.75312 20.7164C5.75312 21.7211 4.93594 22.5383 3.93125 22.5383ZM12.743 35.2234C11.7383 35.2234 10.9211 34.4063 10.9211 33.4016C10.9211 32.3969 11.7383 31.5797 12.743 31.5797C13.1727 31.5797 13.568 31.7297 13.8797 31.9797L13.825 32.0469L14.268 32.4078C14.4547 32.6938 14.5641 33.0352 14.5641 33.4016C14.5648 34.4063 13.7477 35.2234 12.743 35.2234ZM32.9094 30.8617C33.9141 30.8617 34.7312 31.6789 34.7312 32.6836C34.7312 33.6883 33.9141 34.5055 32.9094 34.5055C31.9047 34.5055 31.0875 33.6883 31.0875 32.6836C31.0875 31.6789 31.9047 30.8617 32.9094 30.8617ZM30.8328 19.2391V22.193L29.1867 22.2438C28.8977 22.2523 28.6563 22.4469 28.5844 22.7266C28.3941 23.4732 28.0978 24.1888 27.7047 24.8516C27.557 25.1 27.5914 25.4078 27.7891 25.6188L28.9164 26.8188L26.8281 28.907L25.6281 27.7797C25.418 27.582 25.1094 27.5484 24.8609 27.6953C24.1982 28.0885 23.4826 28.3847 22.7359 28.575C22.4562 28.6461 22.2617 28.8883 22.2531 29.1766L22.2023 30.8227H19.2484L19.1977 29.1766C19.1883 28.8875 18.9945 28.6461 18.7148 28.575C17.9664 28.3844 17.2508 28.0883 16.5883 27.6945C16.3398 27.5469 16.0312 27.5805 15.8211 27.7789L14.6242 28.9063L12.5359 26.818L13.6641 25.6203C13.8617 25.4102 13.8961 25.1016 13.7484 24.8531C13.3544 24.1893 13.0577 23.4723 12.8672 22.7242C12.8336 22.5888 12.7564 22.4683 12.6476 22.381C12.5388 22.2938 12.4043 22.2447 12.2648 22.2414L10.6195 22.1922V19.2391L12.2648 19.1898C12.5539 19.1813 12.7961 18.9867 12.8672 18.707C13.0578 17.9578 13.3547 17.2414 13.7484 16.5781C13.8961 16.3297 13.8617 16.0211 13.6641 15.8109L12.5359 14.6133L14.6242 12.525L15.8219 13.6531C16.032 13.8516 16.3406 13.8852 16.5891 13.7375C17.2531 13.343 17.9687 13.0469 18.718 12.8562C18.9977 12.7844 19.1914 12.543 19.2008 12.2539L19.25 10.6086H22.2031L22.2523 12.2539C22.2609 12.543 22.4547 12.7852 22.7352 12.8562C23.4824 13.0464 24.1985 13.3426 24.8617 13.7359C25.1102 13.8836 25.418 13.8492 25.6289 13.6516L26.8289 12.5242L28.9172 14.6125L27.7891 15.8125C27.6931 15.9134 27.6329 16.0431 27.6177 16.1815C27.6024 16.3199 27.633 16.4595 27.7047 16.5789C28.0978 17.2416 28.3941 17.9572 28.5844 18.7039C28.6555 18.9836 28.8977 19.1781 29.1859 19.1867L30.8328 19.2391ZM36.0687 14.3539C35.0641 14.3539 34.2469 13.5367 34.2469 12.532C34.2469 11.5273 35.0641 10.7102 36.0687 10.7102C37.0734 10.7102 37.8906 11.5273 37.8906 12.532C37.8906 13.5367 37.0734 14.3539 36.0687 14.3539ZM18.0375 18.5516C17.2023 18.5516 16.5234 19.2305 16.5234 20.0656V22.4125C16.5234 22.6711 16.7336 22.8813 16.9922 22.8813C17.2508 22.8813 17.4609 22.6711 17.4609 22.4125V21.7078H18.6141V22.4125C18.6141 22.6711 18.8242 22.8813 19.0828 22.8813C19.3414 22.8813 19.5516 22.6711 19.5516 22.4125V20.0656C19.5516 19.2305 18.8719 18.5516 18.0375 18.5516ZM17.4602 20.7703V20.0656C17.4602 19.7477 17.7187 19.4891 18.0367 19.4891C18.3547 19.4891 18.6133 19.7477 18.6133 20.0656V20.7703H17.4602ZM22.1539 18.5516H20.8805C20.6219 18.5516 20.4117 18.7617 20.4117 19.0203V22.4125C20.4117 22.6711 20.6219 22.8813 20.8805 22.8813C21.1391 22.8813 21.3492 22.6711 21.3492 22.4125V21.1852H22.1539C22.8797 21.1852 23.4703 20.5945 23.4703 19.8688C23.4703 19.143 22.8797 18.5516 22.1539 18.5516ZM22.1539 20.2477H21.3492V19.4891H22.1539C22.3633 19.4891 22.5328 19.6594 22.5328 19.868C22.5328 20.0766 22.3633 20.2477 22.1539 20.2477ZM24.4617 18.5516C24.7203 18.5516 24.9305 18.7617 24.9305 19.0203V22.4125C24.9305 22.6711 24.7203 22.8813 24.4617 22.8813C24.2031 22.8813 23.993 22.6711 23.993 22.4125V19.0203C23.993 18.7609 24.2023 18.5516 24.4617 18.5516Z" fill="#3692E6"/>
</svg>
