<svg width="60" height="60" viewBox="0 0 60 60" fill="none" xmlns="http://www.w3.org/2000/svg">
<path d="M19.6875 53.4375C19.6875 53.1889 19.7863 52.9504 19.9621 52.7746C20.1379 52.5988 20.3764 52.5 20.625 52.5H26.25C26.4986 52.5 26.7371 52.5988 26.9129 52.7746C27.0887 52.9504 27.1875 53.1889 27.1875 53.4375C27.1875 53.6861 27.0887 53.9246 26.9129 54.1004C26.7371 54.2762 26.4986 54.375 26.25 54.375H20.625C20.3764 54.375 20.1379 54.2762 19.9621 54.1004C19.7863 53.9246 19.6875 53.6861 19.6875 53.4375ZM37.5 24.7631C37.2514 24.7631 37.0129 24.8619 36.8371 25.0377C36.6613 25.2135 36.5625 25.452 36.5625 25.7006V32.9175L32.9119 34.4831C32.7947 34.5288 32.6879 34.5976 32.5979 34.6854C32.5079 34.7732 32.4364 34.8782 32.3878 34.9942C32.3392 35.1102 32.3144 35.2347 32.3149 35.3605C32.3154 35.4862 32.3412 35.6106 32.3908 35.7262C32.4404 35.8418 32.5127 35.9462 32.6035 36.0332C32.6942 36.1203 32.8016 36.1882 32.9191 36.2329C33.0367 36.2776 33.162 36.2982 33.2877 36.2934C33.4133 36.2887 33.5368 36.2587 33.6506 36.2053L37.8694 34.3969C38.038 34.3246 38.1817 34.2044 38.2827 34.0513C38.3836 33.8982 38.4375 33.7188 38.4375 33.5353V25.7006C38.4375 25.452 38.3387 25.2135 38.1629 25.0377C37.9871 24.8619 37.7486 24.7631 37.5 24.7631ZM49.9875 26.3719C51.0618 28.4421 51.6029 30.7476 51.5617 33.0796C51.5205 35.4116 50.8984 37.6965 49.7517 39.7275C48.6049 41.7585 46.9697 43.4715 44.9942 44.7113C43.0186 45.9511 40.7651 46.6787 38.4375 46.8281V55.3125C38.4368 56.0582 38.1402 56.7731 37.6129 57.3004C37.0856 57.8277 36.3707 58.1243 35.625 58.125H11.25C10.5043 58.1243 9.78937 57.8277 9.26208 57.3004C8.7348 56.7731 8.43824 56.0582 8.4375 55.3125V4.6875C8.43824 3.94181 8.7348 3.22687 9.26208 2.69958C9.78937 2.1723 10.5043 1.87574 11.25 1.875H35.625C36.3707 1.87574 37.0856 2.1723 37.6129 2.69958C38.1402 3.22687 38.4368 3.94181 38.4375 4.6875V11.25H40.3125C41.0584 11.25 41.7738 11.5463 42.3012 12.0738C42.8287 12.6012 43.125 13.3166 43.125 14.0625C43.125 14.8084 42.8287 15.5238 42.3012 16.0512C41.7738 16.5787 41.0584 16.875 40.3125 16.875V19.0331C42.2493 19.4327 44.0792 20.2385 45.6816 21.3975L46.6237 20.4544C47.1518 19.928 47.867 19.6324 48.6127 19.6324C49.3583 19.6324 50.0735 19.928 50.6016 20.4544L51.2644 21.1172C51.7887 21.6463 52.0829 22.3611 52.0829 23.1061C52.0829 23.851 51.7887 24.5659 51.2644 25.095L49.9875 26.3719ZM47.1338 22.5966C47.8199 23.2423 48.4398 23.9549 48.9844 24.7237L49.9388 23.7694C50.1138 23.5932 50.2121 23.3549 50.2121 23.1066C50.2121 22.8582 50.1138 22.6199 49.9388 22.4438L49.2759 21.78C49.1889 21.6928 49.0855 21.6237 48.9717 21.5765C48.8579 21.5293 48.7359 21.505 48.6127 21.505C48.4895 21.505 48.3675 21.5293 48.2536 21.5765C48.1398 21.6237 48.0364 21.6928 47.9494 21.78L47.1338 22.5966ZM38.4375 16.875H36.5625V18.7969C37.1861 18.7387 37.8139 18.7387 38.4375 18.7969V16.875ZM40.3125 13.125H34.6875C34.4389 13.125 34.2004 13.2238 34.0246 13.3996C33.8488 13.5754 33.75 13.8139 33.75 14.0625C33.75 14.3111 33.8488 14.5496 34.0246 14.7254C34.2004 14.9012 34.4389 15 34.6875 15H40.3125C40.5611 15 40.7996 14.9012 40.9754 14.7254C41.1512 14.5496 41.25 14.3111 41.25 14.0625C41.25 13.8139 41.1512 13.5754 40.9754 13.3996C40.7996 13.2238 40.5611 13.125 40.3125 13.125ZM10.3125 7.5H36.5625V4.6875C36.5623 4.43894 36.4634 4.20062 36.2876 4.02486C36.1119 3.8491 35.8736 3.75025 35.625 3.75H11.25C11.0014 3.75025 10.7631 3.8491 10.5874 4.02486C10.4116 4.20062 10.3127 4.43894 10.3125 4.6875V7.5ZM36.5625 50.625H10.3125V55.3125C10.3127 55.5611 10.4116 55.7994 10.5874 55.9751C10.7631 56.1509 11.0014 56.2498 11.25 56.25H35.625C35.8736 56.2498 36.1119 56.1509 36.2876 55.9751C36.4634 55.7994 36.5623 55.5611 36.5625 55.3125V50.625ZM36.5625 48.75V46.8281C34.2349 46.6787 31.9814 45.9511 30.0058 44.7113C28.0303 43.4715 26.3951 41.7585 25.2484 39.7275C24.1016 37.6965 23.4795 35.4116 23.4383 33.0796C23.3971 30.7476 23.9382 28.4421 25.0125 26.3719L23.7356 25.095C23.2113 24.5659 22.9171 23.851 22.9171 23.1061C22.9171 22.3611 23.2113 21.6463 23.7356 21.1172L24.3984 20.4544C24.9265 19.928 25.6417 19.6324 26.3873 19.6324C27.133 19.6324 27.8482 19.928 28.3762 20.4544L29.3194 21.3975C30.9214 20.2386 32.751 19.4327 34.6875 19.0331V16.875C33.9416 16.875 33.2262 16.5787 32.6988 16.0512C32.1713 15.5238 31.875 14.8084 31.875 14.0625C31.875 13.3166 32.1713 12.6012 32.6988 12.0738C33.2262 11.5463 33.9416 11.25 34.6875 11.25H36.5625V9.375H10.3125V48.75H36.5625ZM27.8663 22.5956L27.0506 21.78C26.8747 21.6042 26.6361 21.5054 26.3873 21.5054C26.1386 21.5054 25.9 21.6042 25.7241 21.78L25.0613 22.4428C24.8862 22.619 24.7879 22.8573 24.7879 23.1056C24.7879 23.354 24.8862 23.5923 25.0613 23.7684L26.0166 24.7228C26.5608 23.954 27.1805 23.2414 27.8663 22.5956ZM49.6397 33.75H47.8125C47.5639 33.75 47.3254 33.6512 47.1496 33.4754C46.9738 33.2996 46.875 33.0611 46.875 32.8125C46.875 32.5639 46.9738 32.3254 47.1496 32.1496C47.3254 31.9738 47.5639 31.875 47.8125 31.875H49.6406C49.434 29.1857 48.3365 26.6421 46.5216 24.6469L45.1237 26.0456C45.0373 26.1352 44.9338 26.2066 44.8194 26.2557C44.7051 26.3049 44.582 26.3307 44.4576 26.3318C44.3331 26.3329 44.2096 26.3092 44.0944 26.262C43.9792 26.2149 43.8745 26.1453 43.7865 26.0572C43.6985 25.9692 43.6289 25.8645 43.5817 25.7493C43.5346 25.6341 43.5109 25.5107 43.512 25.3862C43.513 25.2617 43.5389 25.1387 43.588 25.0243C43.6372 24.9099 43.7086 24.8065 43.7981 24.72L45.1669 23.3513C43.2492 21.7932 40.9013 20.8583 38.4375 20.6719V22.5C38.4375 22.7486 38.3387 22.9871 38.1629 23.1629C37.9871 23.3387 37.7486 23.4375 37.5 23.4375C37.2514 23.4375 37.0129 23.3387 36.8371 23.1629C36.6613 22.9871 36.5625 22.7486 36.5625 22.5V20.6719C33.9396 20.8728 31.4533 21.9215 29.4788 23.6597L30.5391 24.72C30.6286 24.8065 30.7 24.9099 30.7492 25.0243C30.7983 25.1387 30.8242 25.2617 30.8252 25.3862C30.8263 25.5107 30.8026 25.6341 30.7555 25.7493C30.7083 25.8645 30.6387 25.9692 30.5507 26.0572C30.4627 26.1453 30.358 26.2149 30.2428 26.262C30.1276 26.3092 30.0041 26.3329 29.8796 26.3318C29.7551 26.3307 29.6321 26.3049 29.5177 26.2557C29.4034 26.2066 29.2999 26.1352 29.2134 26.0456L28.1625 24.9956C26.5314 26.939 25.551 29.3451 25.3594 31.875H27.1875C27.4361 31.875 27.6746 31.9738 27.8504 32.1496C28.0262 32.3254 28.125 32.5639 28.125 32.8125C28.125 33.0611 28.0262 33.2996 27.8504 33.4754C27.6746 33.6512 27.4361 33.75 27.1875 33.75H25.3594C25.5458 36.2138 26.4807 38.5617 28.0388 40.4794L29.2134 39.3047C29.2999 39.2151 29.4034 39.1437 29.5177 39.0946C29.6321 39.0455 29.7551 39.0196 29.8796 39.0185C30.0041 39.0174 30.1276 39.0412 30.2428 39.0883C30.358 39.1354 30.4627 39.205 30.5507 39.2931C30.6387 39.3811 30.7083 39.4858 30.7555 39.601C30.8026 39.7162 30.8263 39.8396 30.8252 39.9641C30.8242 40.0886 30.7983 40.2116 30.7492 40.326C30.7 40.4404 30.6286 40.5438 30.5391 40.6303L29.3353 41.8341C31.3304 43.6487 33.8736 44.7463 36.5625 44.9531V43.125C36.5625 42.8764 36.6613 42.6379 36.8371 42.4621C37.0129 42.2863 37.2514 42.1875 37.5 42.1875C37.7486 42.1875 37.9871 42.2863 38.1629 42.4621C38.3387 42.6379 38.4375 42.8764 38.4375 43.125V44.9531C40.9677 44.7617 43.3742 43.7813 45.3178 42.15L43.7981 40.6303C43.7086 40.5438 43.6372 40.4404 43.588 40.326C43.5389 40.2116 43.513 40.0886 43.512 39.9641C43.5109 39.8396 43.5346 39.7162 43.5817 39.601C43.6289 39.4858 43.6985 39.3811 43.7865 39.2931C43.8745 39.205 43.9792 39.1354 44.0944 39.0883C44.2096 39.0412 44.3331 39.0174 44.4576 39.0185C44.582 39.0196 44.7051 39.0455 44.8194 39.0946C44.9338 39.1437 45.0373 39.2151 45.1237 39.3047L46.6519 40.8337C48.3904 38.8594 49.4385 36.373 49.6397 33.75Z" fill="#2E2E2E"/>
</svg>
