<svg width="34" height="34" viewBox="0 0 34 34" fill="none" xmlns="http://www.w3.org/2000/svg">
<path d="M5.96228 8.50196C5.22636 8.50196 4.52059 8.7943 4.00021 9.31467C3.47984 9.83504 3.1875 10.5408 3.1875 11.2767V22.7212C3.18698 23.0859 3.25836 23.4471 3.39757 23.7843C3.53678 24.1214 3.74108 24.4277 3.99879 24.6858C4.25651 24.9439 4.56257 25.1487 4.89949 25.2883C5.2364 25.428 5.59755 25.4999 5.96228 25.4999H28.032C28.3967 25.5005 28.7579 25.4291 29.095 25.2899C29.4322 25.1507 29.7385 24.9464 29.9966 24.6887C30.2547 24.4309 30.4594 24.1249 30.5991 23.788C30.7388 23.4511 30.8107 23.0899 30.8107 22.7252V11.2807C30.8113 10.9157 30.7398 10.5541 30.6003 10.2167C30.4608 9.87935 30.2562 9.5728 29.998 9.31466C29.7399 9.05652 29.4334 8.85186 29.096 8.7124C28.7586 8.57294 28.397 8.50143 28.032 8.50196H5.96228Z" fill="#F9F9F9"/>
<path d="M3.1875 19.834V22.7252C3.1875 23.4611 3.47984 24.1669 4.00021 24.6873C4.52058 25.2076 5.22636 25.5 5.96227 25.5H28.032C28.3967 25.5005 28.7579 25.4291 29.095 25.2899C29.4322 25.1507 29.7385 24.9464 29.9966 24.6887C30.2547 24.431 30.4594 24.1249 30.5991 23.788C30.7388 23.4511 30.8107 23.0899 30.8107 22.7252V19.834H3.1875Z" fill="#D40000"/>
</svg>
