<svg width="60" height="60" viewBox="0 0 60 60" fill="none" xmlns="http://www.w3.org/2000/svg">
<g clip-path="url(#clip0_2120_1767)">
<path fill-rule="evenodd" clip-rule="evenodd" d="M43.0816 54.2531V31.8038C43.0816 31.2424 43.5367 30.784 44.1014 30.784H49.0544C49.6191 30.784 50.0742 31.2424 50.0742 31.8038V54.2531H52.1171V18.3369C52.1171 17.7721 52.5723 17.317 53.1336 17.317H58.0899C58.6546 17.317 59.1097 17.7721 59.1097 18.3369V54.2598C59.6113 54.3229 60 54.7514 60 55.273C60 55.8344 59.5449 56.2928 58.9802 56.2928H1.01982C0.455099 56.2928 0 55.8344 0 55.273C0 54.7514 0.388661 54.3229 0.890267 54.2598V18.3369C0.890267 17.7721 1.34869 17.317 1.91009 17.317H6.86635C7.42775 17.317 7.88617 17.7721 7.88617 18.3369V54.2531H9.92581V31.8038C9.92581 31.2424 10.3809 30.784 10.9456 30.784H15.9019C16.4633 30.784 16.9184 31.2424 16.9184 31.8038V54.2531H43.0816ZM30 52.9842C23.3396 52.9842 17.9183 47.5662 17.9183 40.9025C17.9183 34.2421 23.3396 28.8207 30 28.8207C36.6604 28.8207 42.0817 34.2421 42.0817 40.9025C42.0817 47.5662 36.6604 52.9842 30 52.9842ZM30 30.8604C24.4624 30.8604 19.9579 35.3649 19.9579 40.9025C19.9579 46.4401 24.4624 50.9479 30 50.9479C35.5376 50.9479 40.0421 46.4401 40.0421 40.9025C40.0421 35.3649 35.5376 30.8604 30 30.8604ZM26.326 40.7131C25.3959 40.7131 24.5189 40.351 23.8611 39.6933C22.5058 38.3346 22.5058 36.1223 23.8611 34.7636C26.0503 32.5778 29.8107 34.1325 29.8107 37.2285C29.8107 39.1552 28.2494 40.7131 26.326 40.7131ZM26.326 35.7834C25.0437 35.7834 24.3926 37.3414 25.3028 38.2516C25.8676 38.8163 26.7844 38.8163 27.3491 38.2516C28.256 37.3414 27.6082 35.7834 26.326 35.7834ZM33.674 48.0611C32.7439 48.0611 31.8702 47.6991 31.2125 47.0413C29.8538 45.6827 29.8538 43.4736 31.2125 42.115C33.4016 39.9258 37.1587 41.4805 37.1587 44.5765C37.1587 46.5032 35.6007 48.0611 33.674 48.0611ZM33.674 43.1315C32.3951 43.1315 31.744 44.6894 32.6509 45.5996C33.2156 46.1643 34.1324 46.1643 34.6972 45.5996C35.6074 44.6894 34.9563 43.1315 33.674 43.1315ZM26.0802 45.8421C25.1799 45.8421 24.7149 44.7459 25.3593 44.1048L33.2023 36.2618C33.6009 35.8632 34.2454 35.8632 34.644 36.2618C35.0393 36.6604 35.0393 37.3049 34.644 37.7035L26.7977 45.5465C26.6017 45.7425 26.3393 45.8421 26.0802 45.8421ZM23.4094 26.7412H14.7691C14.2044 26.7412 13.7493 26.2861 13.7493 25.7214V16.2441H10.4473C9.5903 16.2441 9.11527 15.2409 9.66338 14.5765L18.3003 4.0793C18.7089 3.58766 19.4663 3.58766 19.8749 4.0793L28.5151 14.5765C29.0599 15.2409 28.5849 16.2441 27.7278 16.2441H24.4259V25.7214C24.4259 26.2861 23.9708 26.7412 23.4094 26.7412ZM15.7856 24.7049H22.3895V15.2242C22.3895 14.6628 22.8446 14.2077 23.4094 14.2077H25.5686L19.0876 6.33154L12.6066 14.2077H14.7691C15.3305 14.2077 15.7856 14.6628 15.7856 15.2242V24.7049ZM40.9124 26.7412C40.6068 26.7412 40.3178 26.605 40.1251 26.3692L31.4849 15.872C30.9401 15.211 31.4151 14.2077 32.2722 14.2077H35.5741V4.72707C35.5741 4.16567 36.0292 3.71057 36.594 3.71057H45.2309C45.7956 3.71057 46.2507 4.16567 46.2507 4.72707V14.2077H49.5527C50.4097 14.2077 50.8847 15.211 50.3399 15.872L41.6997 26.3692C41.507 26.605 41.218 26.7412 40.9124 26.7412ZM34.4314 16.2441L40.9124 24.1203L47.3934 16.2441H45.2309C44.6695 16.2441 44.2144 15.789 44.2144 15.2242V5.74689H37.6105V15.2242C37.6105 15.789 37.1554 16.2441 36.594 16.2441H34.4314ZM2.92991 54.2531H5.84653V19.3534H2.92991V54.2531ZM11.9621 54.2531H14.8821V32.8236H11.9621V54.2531ZM54.1535 54.2531H57.0701V19.3534H54.1535V54.2531ZM45.1179 54.2531H48.0379V32.8236H45.1179V54.2531Z" fill="#2E2E2E"/>
</g>
<defs>
<clipPath id="clip0_2120_1767">
<rect width="60" height="60" fill="white"/>
</clipPath>
</defs>
</svg>
