<svg width="60" height="60" viewBox="0 0 60 60" fill="none" xmlns="http://www.w3.org/2000/svg">
<path d="M48.4503 53.79H46.1096V50.8025C46.1096 49.9948 45.4525 49.3377 44.6448 49.3377H42.3209L40.1906 43.4864C46.1819 39.9034 49.9156 33.4545 49.9156 26.3825C49.9156 16.7761 43.0285 8.49961 33.5722 6.78926L33.9603 5.85445H35.1942C35.9907 5.85445 36.6388 5.20652 36.6388 4.41V1.44445C36.6388 0.64793 35.9907 0 35.1942 0H24.8073C24.0107 0 23.3627 0.64793 23.3627 1.44445V4.40988C23.3627 5.20641 24.0107 5.85434 24.8073 5.85434H26.0398L26.428 6.78996C23.7266 7.28109 21.0397 8.35711 18.6501 10.0172C18.5553 10.083 18.4744 10.1669 18.412 10.264C18.3497 10.3611 18.307 10.4696 18.2866 10.5831C18.2661 10.6967 18.2682 10.8132 18.2928 10.926C18.3174 11.0388 18.3639 11.1456 18.4298 11.2404C18.5107 11.3571 18.6188 11.4524 18.7447 11.5182C18.8705 11.5839 19.0105 11.6182 19.1525 11.618C19.3315 11.618 19.5063 11.5631 19.6531 11.4607C20.4727 10.8925 21.3379 10.3931 22.2399 9.96773L27.608 22.9302C27.1958 23.2169 26.8377 23.5746 26.5507 23.9866L13.5848 18.6157C14.3756 16.9472 15.4164 15.4092 16.6713 14.0546C16.8281 13.8833 16.9108 13.6569 16.9012 13.4248C16.8915 13.1927 16.7904 12.9739 16.62 12.8161C16.4495 12.6583 16.2235 12.5745 15.9914 12.5828C15.7592 12.5912 15.5399 12.6911 15.3812 12.8607C11.9773 16.5388 10.0859 21.3404 10.0859 26.3823C10.0859 33.4318 13.7994 39.8912 19.8109 43.4862L17.6805 49.3375H15.3566C14.5488 49.3375 13.8917 49.9945 13.8917 50.8023V53.7898H11.5513C10.7435 53.7898 10.0864 54.4468 10.0864 55.2546V58.5352C10.0864 59.3429 10.7435 60 11.5513 60H34.5608C35.0463 60 35.4397 59.6066 35.4397 59.1211C35.4397 58.6356 35.0463 58.2422 34.5608 58.2422H11.8442V55.5478H48.1575V58.2422H38.6625C38.177 58.2422 37.7836 58.6356 37.7836 59.1211C37.7836 59.6066 38.177 60 38.6625 60H48.4504C49.2582 60 49.9153 59.3429 49.9153 58.5352V55.2548C49.9152 54.4471 49.2581 53.79 48.4503 53.79ZM40.4503 49.3377H38.0519L36.5429 45.1922C37.2535 44.945 37.9495 44.6572 38.6272 44.3304L40.4503 49.3377ZM30.0008 23.9378C31.349 23.9378 32.4459 25.0346 32.4459 26.3829C32.4459 27.7313 31.349 28.8281 30.0008 28.8281C28.6525 28.8281 27.5555 27.7313 27.5555 26.3829C27.5555 25.0346 28.6524 23.9378 30.0008 23.9378ZM48.1578 26.3824C48.1578 28.5376 47.7795 30.6059 47.0873 32.5254L34.1307 27.1588C34.2277 26.6477 34.228 26.1229 34.1315 25.6117L47.0904 20.2451C47.7822 22.1684 48.1578 24.2366 48.1578 26.3824ZM30.7719 30.5138L36.1378 43.4711C34.2199 44.162 32.1536 44.5395 30.0008 44.5395C27.8457 44.5395 25.7775 44.1612 23.8579 43.4689L29.2248 30.5128C29.7421 30.61 30.254 30.6103 30.7719 30.5138ZM30.0008 46.2973C31.6752 46.2973 33.3015 46.0886 34.8562 45.6975L36.1812 49.3376H23.8203L25.1454 45.6975C26.733 46.0965 28.3638 46.298 30.0008 46.2973ZM37.7606 42.7954L32.3936 29.8354C32.8057 29.5488 33.1636 29.1913 33.4505 28.7795L46.4111 34.1479C44.6134 37.9316 41.545 40.9989 37.7606 42.7954ZM46.415 18.622L33.4531 23.9899C33.1666 23.578 32.8093 23.2202 32.3976 22.9332L37.7694 9.96527C41.5739 11.7679 44.6273 14.8479 46.415 18.622ZM25.1205 1.75781H34.8809V4.09652H25.1205V1.75781ZM32.057 5.85434L29.9988 10.8112L27.9429 5.85434H32.057ZM23.8634 9.29426C24.9201 8.91418 26.01 8.63347 27.1188 8.45578L28.6831 12.2276C28.7902 12.4884 28.9724 12.7114 29.2067 12.8682C29.441 13.0249 29.7167 13.1084 29.9986 13.1079C30.28 13.1086 30.5552 13.0256 30.7893 12.8693C31.0233 12.7131 31.2056 12.4907 31.3128 12.2305L32.8808 8.45437C33.9929 8.63107 35.086 8.91148 36.1459 9.29191L30.7769 22.2531C30.2657 22.156 29.7409 22.1557 29.2296 22.2521L23.8634 9.29426ZM25.8706 25.6077C25.7738 26.1184 25.7735 26.6426 25.8698 27.1534L12.9121 32.5194C12.2213 30.6015 11.8438 28.5354 11.8438 26.3824C11.8426 24.2885 12.2037 22.2101 12.9112 20.2393L25.8706 25.6077ZM13.5879 34.1422L26.5479 28.7752C26.8345 29.1873 27.192 29.5454 27.6038 29.8325L22.2352 42.7928C18.4516 40.995 15.3843 37.9267 13.5879 34.1422ZM21.3741 44.3303C22.0519 44.6573 22.7479 44.945 23.4587 45.1921L21.9496 49.3376H19.5512L21.3741 44.3303ZM15.6495 51.0955H44.3518V53.79H15.6495V51.0955Z" fill="#2E2E2E"/>
</svg>
